<svg xmlns="http://www.w3.org/2000/svg" width="171" height="70"><defs><style>.cls-3{stroke:#d24a44;stroke-width:3px}.cls-4{fill-rule:evenodd}.cls-3{fill:#fff}.cls-4{fill:#d24a44}</style></defs><ellipse cx="86" cy="37" rx="77" ry="25" stroke="#d24a44" stroke-width="3" fill="none"/><path d="M10 35s107 8 151 2" fill-rule="evenodd" stroke="#d24a44" stroke-width="3" fill="none"/><path class="cls-3" d="M1 1h99v68H1z"/><rect id="Rounded_Rectangle_2" data-name="Rounded Rectangle 2" class="cls-3" x="12" y="12" width="12" height="46" rx="6" ry="6"/><rect id="Rounded_Rectangle_2_copy" data-name="Rounded Rectangle 2 copy" class="cls-3" x="32" y="12" width="12" height="46" rx="6" ry="6"/><rect id="Rounded_Rectangle_2_copy_2" data-name="Rounded Rectangle 2 copy 2" class="cls-3" x="52" y="12" width="12" height="46" rx="6" ry="6"/><rect id="Rounded_Rectangle_2_copy_3" data-name="Rounded Rectangle 2 copy 3" class="cls-3" x="72" y="12" width="12" height="46" rx="6" ry="6"/><path class="cls-4" d="M0 0h3v70H0V0z"/><path id="Shape_1_copy" data-name="Shape 1 copy" class="cls-4" d="M168 0h3v70h-3V0z"/><path class="cls-4" d="M3 70v-3h165v3H3z"/><path id="Shape_2_copy" data-name="Shape 2 copy" class="cls-4" d="M3 3V0h165v3H3z"/></svg>