<svg xmlns="http://www.w3.org/2000/svg" width="217" height="94" viewBox="0 0 217 95"><defs><style>.cls-2{fill:none;stroke-width:3px;stroke:#d24a44}</style></defs><path d="M0 27h55.254s0 9.5 7.017 9.5h71.041V17h16.664V0h34.204v36.5H214S197.336 81 184.18 81H26.311s0-32-26.311-54z" fill-rule="evenodd" stroke="#d24a44" fill="none" stroke-width="3"/><circle class="cls-2" cx="67.5" cy="56.5" r="7.5"/><circle id="Ellipse_2_copy" data-name="Ellipse 2 copy" class="cls-2" cx="97.5" cy="56.5" r="7.5"/><circle id="Ellipse_2_copy_2" data-name="Ellipse 2 copy 2" class="cls-2" cx="128.5" cy="56.5" r="7.5"/><circle cx="193.5" cy="70.5" r="23.5" fill="#d24a44" stroke="#d24a44"/><path id="_" data-name="" d="M190.066 80.851a1.2 1.2 0 0 0 1.787 0l14.637-14.588a1.32 1.32 0 0 0 0-1.786l-1.835-1.786a1.107 1.107 0 0 0-.869-.4 1.262 1.262 0 0 0-.918.4L190.959 74.6l-5.559-5.559a1.261 1.261 0 0 0-.918-.4 1.105 1.105 0 0 0-.868.4l-1.836 1.786a1.32 1.32 0 0 0 0 1.786z" fill="#fff" fill-rule="evenodd"/></svg>