<svg xmlns="http://www.w3.org/2000/svg" width="106" height="134"><defs><style>.cls-2{fill:none}.cls-2,.cls-5{stroke:#d24a44;stroke-width:1px}.cls-5,.cls-6{fill:#d24a44;fill-rule:evenodd}</style></defs><path stroke-width="3" stroke="#d24a44" fill="none" d="M0 0h92v120H0z"/><rect id="Rounded_Rectangle_4" data-name="Rounded Rectangle 4" class="cls-2" x="13.281" y="12.375" width="11.375" height="12.469" rx="1" ry="1"/><rect id="Rounded_Rectangle_4_copy" data-name="Rounded Rectangle 4 copy" class="cls-2" x="13.281" y="29.031" width="11.375" height="12.438" rx="1" ry="1"/><rect id="Rounded_Rectangle_4_copy_2" data-name="Rounded Rectangle 4 copy 2" class="cls-2" x="13.281" y="45.625" width="11.375" height="12.469" rx="1" ry="1"/><circle id="Ellipse_3_copy" data-name="Ellipse 3 copy" cx="82.5" cy="110.5" r="23.5" fill="#d24a44" stroke="#d24a44"/><path id="_copy_4" data-name=" copy 4" d="M79.066 120.851a1.2 1.2 0 0 0 1.786 0l14.638-14.589a1.322 1.322 0 0 0 0-1.786l-1.836-1.786a1.105 1.105 0 0 0-.868-.4 1.259 1.259 0 0 0-.918.4L79.96 114.6l-5.56-5.559a1.263 1.263 0 0 0-.918-.4 1.108 1.108 0 0 0-.868.4l-1.836 1.786a1.323 1.323 0 0 0 0 1.787z" fill-rule="evenodd" fill="#fff"/><path class="cls-5" d="M33.2 19.047V16.19h44.573v2.857H33.2z"/><path id="Shape_5_copy" data-name="Shape 5 copy" class="cls-5" d="M33.2 36.19v-2.857h44.573v2.857H33.2z"/><path id="Shape_5_copy_2" data-name="Shape 5 copy 2" class="cls-5" d="M33.2 52.381v-2.857h44.573v2.857H33.2z"/><rect id="Rounded_Rectangle_4_copy_3" data-name="Rounded Rectangle 4 copy 3" class="cls-2" x="13.281" y="61.813" width="11.375" height="12.469" rx="1" ry="1"/><path id="_" data-name="" class="cls-6" d="M18.714 21.937a.672.672 0 0 0 1 0l8.194-8.2a.745.745 0 0 0 0-1l-1.028-1a.619.619 0 0 0-.486-.223.7.7 0 0 0-.514.223l-6.667 6.694L16.1 15.3a.7.7 0 0 0-.514-.223.618.618 0 0 0-.486.223l-1.028 1a.746.746 0 0 0 0 1z"/><path id="_copy" data-name=" copy" class="cls-6" d="M18.714 39.08a.672.672 0 0 0 1 0l8.194-8.2a.745.745 0 0 0 0-1l-1.028-1a.618.618 0 0 0-.486-.223.7.7 0 0 0-.514.223l-6.667 6.694-3.113-3.133a.7.7 0 0 0-.514-.223.618.618 0 0 0-.486.223l-1.028 1a.745.745 0 0 0 0 1z"/><path id="_copy_2" data-name=" copy 2" class="cls-6" d="M18.714 56.223a.672.672 0 0 0 1 0l8.194-8.2a.745.745 0 0 0 0-1l-1.028-1a.619.619 0 0 0-.486-.223.7.7 0 0 0-.514.223l-6.667 6.694-3.113-3.133a.7.7 0 0 0-.514-.223.618.618 0 0 0-.486.223l-1.028 1a.746.746 0 0 0 0 1z"/><path id="_copy_3" data-name=" copy 3" class="cls-6" d="M18.714 72.413a.672.672 0 0 0 1 0l8.194-8.2a.745.745 0 0 0 0-1l-1.028-1a.618.618 0 0 0-.486-.223.7.7 0 0 0-.514.223L19.214 68.9 16.1 65.775a.7.7 0 0 0-.514-.223.618.618 0 0 0-.486.223l-1.028 1a.746.746 0 0 0 0 1z"/><path id="Shape_5_copy_3" data-name="Shape 5 copy 3" class="cls-5" d="M33.2 68.571v-2.857h44.573v2.857H33.2z"/><path id="Shape_5_copy_4" data-name="Shape 5 copy 4" class="cls-5" d="M14.227 83.809v-2.857h62.6v2.857h-62.6z"/><path id="Shape_5_copy_5" data-name="Shape 5 copy 5" class="cls-5" d="M14.227 97.143v-2.857h46.079v2.857H14.227z"/></svg>