<svg xmlns="http://www.w3.org/2000/svg" width="114" height="137"><path d="M1.12 122.737C-.5 112.214-.734 98.066 2.974 94.366s31.517-12.952 33.99-15.419c3.708 11.718 12.36 38.24 12.36 38.24s5.562-9.868 4.944-13.569c-3.09-6.784-10.506-17.886 3.708-17.886s2.472 14.186 3.09 18.5c2.472 5.551 4.944 13.569 4.944 13.569L78.987 78.33s4.326 4.934 9.27 6.784 22.865 2.467 24.719 12.952.618 24.054.618 24.054c-3.708 3.084-28.427 13.569-56.237 14.8S1.738 122.737 1.12 122.737z" stroke="#d24a44" stroke-width="3" fill-rule="evenodd" fill="#d24a44"/><path d="M58.593 0c9.888 0 17.922 8.635 20.394 10.485 6.8 1.85 8.652 15.419 4.326 27.754 6.952-.925 2.954 18.6-.618 20.354-2.466 8.525-12.978 22.82-26.574 22.82s-21.63-14.494-23.484-22.2c-5.1-2.776-9.579-20.662-1.854-20.97-1.854-8.018-4.4-17.952 2.472-25.9C40.054 4.471 45 0 58.593 0z" fill="none" stroke="#d24a44" stroke-width="3" fill-rule="evenodd"/></svg>