<svg xmlns="http://www.w3.org/2000/svg" width="220" height="95" viewBox="0 0 218 100"><defs><style>.cls-1,.cls-2,.cls-3{fill:none;stroke:#d24a44}.cls-1,.cls-3{stroke-width:3px}.cls-1{fill-rule:evenodd}.cls-2{stroke-width:10px}</style></defs><path class="cls-1" d="M.014 73.889V5.966C.014-.459.941 0 6.036 0h138.723c6.021 0 6.484 0 6.484 6.425v65.628h3.243V14.686c0-2.754.926-3.672 3.705-3.672h25.94c3.705 0 4.632 1.836 7.411 5.507S202.2 33.043 205.9 38.092s13.433 11.474 13.9 18.357 0 10.556 0 16.063-.926 7.8-4.632 7.8-9.727.459-9.727.459-1.853-17.44-18.065-17.44-18.065 16.522-18.065 16.522h-42.617s-1.39-16.981-18.528-16.981-17.6 16.981-17.6 16.981S81.8 80 66 80c-1 0-5-17-20-17-16.207 0-18.807 17-19 17-12.523 0-23.153-.145-24.206-.145-3.243 0-2.78.459-2.78-5.966z"/><path class="cls-1" d="M163 18h20l17 26h-37V18z"/><ellipse class="cls-2" cx="109.094" cy="80.313" rx="14.812" ry="14.688"/><ellipse id="Ellipse_1_copy_2" data-name="Ellipse 1 copy 2" class="cls-2" cx="46.094" cy="80.313" rx="14.813" ry="14.688"/><ellipse id="Ellipse_1_copy" data-name="Ellipse 1 copy" class="cls-2" cx="187.828" cy="80.313" rx="14.828" ry="14.688"/><rect id="Rounded_Rectangle_5" data-name="Rounded Rectangle 5" class="cls-3" x="19" y="9" width="13" height="50" rx="6.5" ry="6.5"/><rect id="Rounded_Rectangle_5_copy" data-name="Rounded Rectangle 5 copy" class="cls-3" x="39" y="9" width="13" height="50" rx="6.5" ry="6.5"/><rect id="Rounded_Rectangle_5_copy_2" data-name="Rounded Rectangle 5 copy 2" class="cls-3" x="59" y="9" width="13" height="50" rx="6.5" ry="6.5"/><rect id="Rounded_Rectangle_5_copy_3" data-name="Rounded Rectangle 5 copy 3" class="cls-3" x="79" y="9" width="13" height="50" rx="6.5" ry="6.5"/><rect id="Rounded_Rectangle_5_copy_4" data-name="Rounded Rectangle 5 copy 4" class="cls-3" x="99" y="9" width="13" height="50" rx="6.5" ry="6.5"/><rect id="Rounded_Rectangle_5_copy_4-2" data-name="Rounded Rectangle 5 copy 4" class="cls-3" x="119" y="9" width="13" height="50" rx="6.5" ry="6.5"/></svg>