<svg xmlns="http://www.w3.org/2000/svg" width="189" height="109" viewBox="0 0 194 109"><defs><style>.cls-1{fill:none;stroke:#d24a44;stroke-width:3px;fill-rule:evenodd}</style></defs><path class="cls-1" d="M4.692 61.176l16.814-8.165L0 22.3l12.513-5.055 37.538 23.713 32.455-11.275L57.481 2.466S70.776-1.811 77.423.911s34.019 19.051 34.019 19.051S134.9 11.8 139.987 9.854s37.93-3.11 46.923 5.832-13.294 15.941-23.852 19.83-30.109 9.72-30.109 9.72S107.923 95 102.058 100.835 83.289 109 83.289 109l12.9-51.323S77.423 69.341 50.833 69.73 12.9 64.287 4.692 61.176z"/><path class="cls-1" d="M59.044 49.2c1.864-.511 4.027 1.449 4.831 4.377s-.056 5.719-1.919 6.23-4.027-1.448-4.831-4.378.055-5.721 1.919-6.229z"/><path id="Ellipse_4_copy" data-name="Ellipse 4 copy" class="cls-1" d="M73.044 44.2c1.864-.511 4.027 1.448 4.831 4.378s-.055 5.718-1.919 6.23-4.027-1.448-4.831-4.378.055-5.723 1.919-6.23z"/><path id="Ellipse_4_copy_2" data-name="Ellipse 4 copy 2" class="cls-1" d="M87.044 38.2c1.864-.512 4.027 1.448 4.831 4.377s-.055 5.719-1.919 6.23-4.027-1.449-4.831-4.378.055-5.721 1.919-6.229z"/></svg>