<svg xmlns="http://www.w3.org/2000/svg" width="229" height="62"><defs><style>.cls-2,.cls-3{fill:none;stroke:#d24a44;stroke-width:3px}.cls-3{fill:#d24a44}</style></defs><path d="M5.1 37.662C6.854 35 38.665 12.258 49.737 8.349s23.726-5.507 36.028-5.862 30.756-1.421 30.756-1.421L119.157 0h92.268v1.066l1.933.177V3.73h10.9v46.545h-10.9v4.086h-11.951s-2.46 4.619-6.854 4.619-5.975-4.264-5.975-4.264h-9.139a7.966 7.966 0 0 1-7.206 4.442c-5.272 0-5.975-4.442-5.975-4.442h-88.05s-2.285 4.619-6.151 4.619-6.327-4.619-6.327-4.619h-9.315s-2.988 4.442-6.854 4.442-6.151-4.442-6.151-4.442H16.7a11.5 11.5 0 0 1-10.022-5.685c-.703-1.598-3.339-8.705-1.578-11.369z" fill-rule="evenodd" stroke="#d24a44" stroke-width="3" fill="none"/><rect id="Rounded_Rectangle_6" data-name="Rounded Rectangle 6" class="cls-2" x="73" y="19" width="20" height="8" rx="4" ry="4"/><rect id="Rounded_Rectangle_6_copy" data-name="Rounded Rectangle 6 copy" class="cls-2" x="112" y="19" width="20" height="8" rx="4" ry="4"/><rect id="Rounded_Rectangle_6_copy_2" data-name="Rounded Rectangle 6 copy 2" class="cls-2" x="151" y="19" width="20" height="8" rx="4" ry="4"/><rect id="Rounded_Rectangle_6_copy_3" data-name="Rounded Rectangle 6 copy 3" class="cls-2" x="190" y="19" width="20" height="8" rx="4" ry="4"/><path class="cls-3" d="M0 57.75h229v3H0zm5.438 3h8.094V62H5.438z"/><path id="Rectangle_2_copy" data-name="Rectangle 2 copy" class="cls-3" d="M21.25 60.75h8.094V62H21.25z"/><path id="Rectangle_2_copy_2" data-name="Rectangle 2 copy 2" class="cls-3" d="M37.781 60.75h8.094V62h-8.094z"/><path id="Rectangle_2_copy_2-2" data-name="Rectangle 2 copy 2" class="cls-3" d="M53.594 60.75h8.094V62h-8.094z"/><path id="Rectangle_2_copy_3" data-name="Rectangle 2 copy 3" class="cls-3" d="M70.125 60.75h8.094V62h-8.094z"/><path id="Rectangle_2_copy_3-2" data-name="Rectangle 2 copy 3" class="cls-3" d="M85.938 60.75h8.094V62h-8.094z"/><path id="Rectangle_2_copy_3-3" data-name="Rectangle 2 copy 3" class="cls-3" d="M102.469 60.75h8.062V62h-8.062z"/><path id="Rectangle_2_copy_3-4" data-name="Rectangle 2 copy 3" class="cls-3" d="M118.281 60.75h8.094V62h-8.094z"/><path id="Rectangle_2_copy_4" data-name="Rectangle 2 copy 4" class="cls-3" d="M134.813 60.75h8.062V62h-8.062z"/><path id="Rectangle_2_copy_4-2" data-name="Rectangle 2 copy 4" class="cls-3" d="M150.625 60.75h8.063V62h-8.063z"/><path id="Rectangle_2_copy_4-3" data-name="Rectangle 2 copy 4" class="cls-3" d="M167.125 60.75h8.094V62h-8.094z"/><path id="Rectangle_2_copy_4-4" data-name="Rectangle 2 copy 4" class="cls-3" d="M182.969 60.75h8.062V62h-8.062z"/><path id="Rectangle_2_copy_5" data-name="Rectangle 2 copy 5" class="cls-3" d="M199.125 60.75h8.094V62h-8.094z"/></svg>