<svg xmlns="http://www.w3.org/2000/svg" width="229" height="71" viewBox="0 0 229 72"><defs><style>.cls-2,.cls-4{fill:none;stroke:#da291c;stroke-width:3px}.cls-4{fill:#da291c}</style></defs><path d="M5.1 39.662C6.854 37 38.665 14.258 49.737 10.349s23.726-5.507 36.028-5.862 30.756-1.421 30.756-1.421L119.157 2h92.268v1.066l1.933.177V5.73h10.9v46.545h-10.9v4.086h-11.951s-2.46 4.619-6.854 4.619-5.975-4.264-5.975-4.264h-9.139a7.966 7.966 0 0 1-7.206 4.442c-5.272 0-5.975-4.442-5.975-4.442h-88.05s-2.285 4.619-6.151 4.619-6.327-4.619-6.327-4.619h-9.315s-2.988 4.442-6.854 4.442-6.151-4.442-6.151-4.442H16.7a11.5 11.5 0 0 1-10.022-5.685c-.703-1.598-3.339-8.705-1.578-11.369z" fill-rule="evenodd" stroke-width="3" stroke="#da291c" fill="none"/><rect id="Rounded_Rectangle_6" data-name="Rounded Rectangle 6" class="cls-2" x="73" y="21" width="20" height="8" rx="4" ry="4"/><rect id="Rounded_Rectangle_6_copy" data-name="Rounded Rectangle 6 copy" class="cls-2" x="112" y="21" width="20" height="8" rx="4" ry="4"/><rect id="Rounded_Rectangle_6_copy_2" data-name="Rounded Rectangle 6 copy 2" class="cls-2" x="151" y="21" width="20" height="8" rx="4" ry="4"/><rect id="Rounded_Rectangle_6_copy_3" data-name="Rounded Rectangle 6 copy 3" class="cls-2" x="190" y="21" width="20" height="8" rx="4" ry="4"/><path fill="#da291c" stroke="#da291c" d="M0 61.75h229v3H0z"/><path class="cls-4" d="M5.438 64.75h8.094v3H5.438z"/><path id="Rectangle_2_copy_2" data-name="Rectangle 2 copy 2" class="cls-4" d="M25.781 64.75h8.094v3h-8.094z"/><path id="Rectangle_2_copy_3" data-name="Rectangle 2 copy 3" class="cls-4" d="M47.125 64.75h8.094v3h-8.094z"/><path id="Rectangle_2_copy" data-name="Rectangle 2 copy" class="cls-4" d="M68.438 64.75h8.094v3h-8.094z"/><path id="Rectangle_2_copy_4" data-name="Rectangle 2 copy 4" class="cls-4" d="M88.781 64.75h8.094v3h-8.094z"/><path id="Rectangle_2_copy_4-2" data-name="Rectangle 2 copy 4" class="cls-4" d="M110.125 64.75h8.094v3h-8.094z"/><path id="Rectangle_2_copy_5" data-name="Rectangle 2 copy 5" class="cls-4" d="M131.438 64.75h8.093v3h-8.093z"/><path id="Rectangle_2_copy_5-2" data-name="Rectangle 2 copy 5" class="cls-4" d="M151.781 64.75h8.094v3h-8.094z"/><path id="Rectangle_2_copy_5-3" data-name="Rectangle 2 copy 5" class="cls-4" d="M173.125 64.75h8.094v3h-8.094z"/><path id="Rectangle_2_copy_6" data-name="Rectangle 2 copy 6" class="cls-4" d="M192.781 64.75h8.094v3h-8.094z"/><path id="Rectangle_2_copy_6-2" data-name="Rectangle 2 copy 6" class="cls-4" d="M214.125 64.75h8.094v3h-8.094z"/></svg>