<svg xmlns="http://www.w3.org/2000/svg" width="131" height="130" viewBox="0 0 131 131"><defs><style>.cls-1{fill:none;stroke:#da291c;stroke-width:4px;fill-rule:evenodd}</style></defs><path class="cls-1" d="M29 40L8 30l6 42-6 38 37 8 41-8 35 8-5-43 5-36-36-14-13 7"/><path class="cls-1" d="M12 72l37 7-4 40m4-47v10"/><path class="cls-1" d="M48 79l35-7 34 4"/><path d="M50 69S29 40.5 28 22 43.5 0 51 0s21 3.5 21 21c0 16.07-22 48-22 48zm0-61a14 14 0 1 1-14 14A14 14 0 0 1 50 8z" fill="#da291c" fill-rule="evenodd"/><path class="cls-1" d="M86 112l-4-40 5-47"/></svg>