<svg id="Layer_3" xmlns="http://www.w3.org/2000/svg" viewBox="0 0 252.2 157.2"><style>.st0{fill:#b2d5e6}.st0,.st1,.st5{stroke:#0073ae;stroke-width:2;stroke-miterlimit:10}.st1{fill:#fff}.st5{fill:none;stroke-linecap:round;stroke-linejoin:round;opacity:.2}.st7{fill:#0073ae}</style><path class="st0" d="M171.3 147.2h-92c-1.4 0-2.5-1.1-2.5-2.5V65.3c0-1.4 1.1-2.5 2.5-2.5h92c1.4 0 2.5 1.1 2.5 2.5v79.5c-.1 1.3-1.2 2.4-2.5 2.4z"/><path class="st0" d="M111 65.3v79.5c0 1.4 1.1 2.5 2.5 2.5h57.8c1.4 0 2.5-1.1 2.5-2.5V65.3c0-1.4-1.1-2.5-2.5-2.5h-57.8c-1.4.1-2.5 1.2-2.5 2.5z"/><path class="st1" d="M173.7 65.1c0-1.2-1.1-2.2-2.5-2.2h-57.8c-1.4 0-2.5 1-2.5 2.2v24.6c0 7.9 14 14.2 31.4 14.2 17.3 0 31.4-6.4 31.4-14.2V65.1z"/><path d="M160.9 94.1h-37.1c-1 0-1.9-.8-1.9-1.9V71.6c0-1 .8-1.9 1.9-1.9h37.1c1 0 1.9.8 1.9 1.9v20.6c0 1.1-.9 1.9-1.9 1.9z" fill="#ffdbb2" stroke="#f80" stroke-width="2" stroke-miterlimit="10"/><path class="st1" d="M131.7 114.5h-3.2c-1.1 0-2-.9-2-2v-3.2c0-1.1.9-2 2-2h3.2c1.1 0 2 .9 2 2v3.2c0 1.1-.9 2-2 2zm12 0h-3.2c-1.1 0-2-.9-2-2v-3.2c0-1.1.9-2 2-2h3.2c1.1 0 2 .9 2 2v3.2c0 1.1-.9 2-2 2zm12 0h-3.2c-1.1 0-2-.9-2-2v-3.2c0-1.1.9-2 2-2h3.2c1.1 0 2 .9 2 2v3.2c0 1.1-.9 2-2 2zm-24 12h-3.2c-1.1 0-2-.9-2-2v-3.2c0-1.1.9-2 2-2h3.2c1.1 0 2 .9 2 2v3.2c0 1.1-.9 2-2 2zm12 0h-3.2c-1.1 0-2-.9-2-2v-3.2c0-1.1.9-2 2-2h3.2c1.1 0 2 .9 2 2v3.2c0 1.1-.9 2-2 2zm12 0h-3.2c-1.1 0-2-.9-2-2v-3.2c0-1.1.9-2 2-2h3.2c1.1 0 2 .9 2 2v3.2c0 1.1-.9 2-2 2zm-24 12h-3.2c-1.1 0-2-.9-2-2v-3.2c0-1.1.9-2 2-2h3.2c1.1 0 2 .9 2 2v3.2c0 1.1-.9 2-2 2zm12 0h-3.2c-1.1 0-2-.9-2-2v-3.2c0-1.1.9-2 2-2h3.2c1.1 0 2 .9 2 2v3.2c0 1.1-.9 2-2 2zm12 0h-3.2c-1.1 0-2-.9-2-2v-3.2c0-1.1.9-2 2-2h3.2c1.1 0 2 .9 2 2v3.2c0 1.1-.9 2-2 2z"/><path d="M85 142.3c-.2.8-.3 1.6-.3 2.4 0 .8.1 1.6.3 2.4h21.5c.2-.8.3-1.6.3-2.4 0-.8-.1-1.6-.3-2.4-.9-8.8-3.6-40 1.5-67.1.7-1.7 1.1-3.5 1.1-5.4 0-2.5-.7-4.9-1.9-6.9H84.3c-1.2 2-1.9 4.4-1.9 6.9 0 1.9.4 3.8 1.1 5.4 5.1 27.1 2.4 58.3 1.5 67.1zM173.7 65c0-.5-.3-1-.7-1.4-.4-.5-1.1-.8-1.8-.8h-3.5v84.4h3.5c1.4 0 2.5-1.1 2.5-2.5V65z" opacity=".5" fill="#0073ae"/><path class="st1" d="M105.8 75.2c.7-1.7 1.1-3.5 1.1-5.4 0-7.4-6-13.4-13.4-13.4s-13.4 6-13.4 13.4c0 1.9.4 3.8 1.1 5.4 5.2 27.1 2.5 58.3 1.5 67.1-.2.8-.3 1.6-.3 2.4 0 6.1 4.9 11 11 11s11-4.9 11-11c0-.8-.1-1.6-.3-2.4-.8-8.8-3.5-40 1.7-67.1z"/><path d="M139.6 88.3l-1.5 1.7m14.3-16.8l-11 12.8m3.5-11.6l-8.1 9.4" fill="none" stroke="#fff" stroke-width="2" stroke-linecap="round" stroke-linejoin="round" stroke-miterlimit="10"/><circle class="st5" cx="173.5" cy="19.5" r="18"/><circle class="st5" cx="75.5" cy="19.1" r="18"/><circle class="st5" cx="19.5" cy="89.5" r="18"/><circle class="st5" cx="232.5" cy="89.5" r="18"/><path d="M82.5 39.5l5 15M167 40l-7 19m52 37l-35 5M39 95l33 6" opacity=".3" stroke-width="3" stroke-dasharray="0,7" stroke="#0073ae" fill="none" stroke-linecap="round" stroke-linejoin="round" stroke-miterlimit="10"/><path class="st7" d="M75.5 7.6C69.1 7.6 64 12.8 64 19.1s5.2 11.5 11.5 11.5S87 25.5 87 19.1 81.9 7.6 75.5 7.6zM86 16.5c-.4.1-.6.3-.7.5-.1.2-.2.6.1 1.1.1.2.2.3.2.3l-.1.1c-.2.1-.5.4-.6.8-.1 0-.2.1-.2.1-.5.3-1.4.8-1.2 2.2.2 1.1 0 1.9-1.6 4.1-.5.7-1 .9-1.2.9-.1 0-.2 0-.3-.1-.3-.4-.4-1.2-.3-2.2.5-3.5-1.1-4.5-1.3-4.6-.2-.1-.4-.1-.6 0 0 0-.6.3-1.3.3-.9 0-1.5-.5-1.8-1.7-.4-1.5.3-2.1 1.1-2.6.4-.3.9-.7.9-1.2 0-.3-.1-.7-.4-1-.2-.2-.3-.4-.3-.5 0-.2.2-.4.4-.6.8-.1 1.8-.3 2.2-.9.2-.3.2-.6.1-.9h.2l.2-.1c.6-.2 1-.6 1.2-.9 2.5 1.4 4.5 3.9 5.3 6.9zM75.5 8.3h.9v.1c0 .1-.2.2-.4.2-.1 0-.2 0-.2.1-.2 0-.4.1-.6.2-.2.1-.4.3-.5.5l-.3.3c-.2.2-.6.2-.9.1-.2-.3-.3-.7-.2-1.1l-.4-.1c.8-.2 1.7-.3 2.6-.3zm-4.7 1.1c-.1.6 0 1.3.4 1.7.2.2.3.3.5.4.1.1.2.1.2.2.3.2.6.6.5 1 0 .2-.6.8-.8 1.1-.2.3-.4.5-.5.7 0 .1-.1.2-.5 0-.1-.1-.2-.1-.3-.2-.2-.1-.4-.3-.8-.3s-.7.2-.9.4l-.1.1c-.4.4-1 .5-1.5.8-.2.1-.4.1-.5.2-.6.2-1 .5-1.4.8.8-3.1 2.9-5.6 5.7-6.9zm-6.1 9.7v-.2c.2.3.5.4 1 .4.3 0 .7 0 1.6.8 1.1.9 2 1.4 2.7 1.7.7.4.9.5 1 .8.1.4 0 .7-.2 1.1-.2.4-.3.8-.3 1.4-.4.2-1.1.6-1.3 2.1 0 .2-.1.4-.1.6-2.6-1.9-4.4-5.1-4.4-8.7zm10.8 10.8c-2.1 0-4-.6-5.6-1.6 0-.4.1-.7.1-1 .2-1.1.6-1.4 1-1.6.3-.1.5-.3.4-.7-.1-.4.1-.7.2-1.1.2-.4.4-.9.2-1.6-.2-.6-.7-.9-1.4-1.2-.6-.3-1.5-.7-2.5-1.6-1.1-.9-1.7-1-2.1-1-.4 0-.5 0-.7-.9-.1-.3-.1-.5-.1-.6v-.1l.3.2c.2-.5.7-.8 1.5-1.2.2-.1.3-.1.5-.2.6-.2 1.2-.4 1.7-.9l.1-.1c.2-.1.3-.3.4-.3.2 0 .2.1.4.2.1.1.2.2.5.3.9.4 1.3-.1 1.4-.3.1-.1.3-.3.4-.5.6-.6.9-1.1 1-1.5.1-.6-.2-1.2-.8-1.6-.1-.1-.2-.1-.3-.2-.1-.1-.3-.2-.4-.3-.4-.4-.4-1.1 0-1.5h-.1c.3-.1.6-.2 1-.3-.1.6 0 1.1.4 1.6l.1.1h.1c.2.1.5.2.8.2.3 0 .7-.1 1-.3.2-.1.3-.2.4-.4.1-.1.2-.3.4-.3.1-.1.3-.1.4-.1.1 0 .2 0 .3-.1.2-.1.5-.4.6-.7v-.2c.9.1 1.8.4 2.7.8-.2.2-.4.4-.8.5l-.2.1c-.4.1-.6.2-.7.3l-.5.6h.5s0 .1.1.1v.3c-.2.3-.8.5-1.7.6h-.1l-.1.1c-.2.2-.7.6-.8 1.1 0 .4.1.8.5 1.1.2.2.2.4.2.4 0 .2-.3.4-.6.7-.7.5-1.9 1.4-1.3 3.4.5 1.8 1.6 2.2 2.5 2.2.8 0 1.4-.3 1.6-.4.2.1 1.3 1 .9 3.8-.2 1.3 0 2.2.5 2.8.2.3.5.4.8.4.6 0 1.2-.5 1.8-1.2 1.7-2.2 2-3.2 1.8-4.7-.1-.8.3-1.1.8-1.4.3-.2.6-.3.6-.6 0-.2.1-.3.3-.4.4-.3.6-.6.1-1.4-.1-.1-.1-.3-.1-.4 0-.1.1-.1.2-.1.1.6.2 1.2.2 1.9 0 6-4.8 10.8-10.8 10.8z"/><path class="st7" d="M75.5 30.9c-6.5 0-11.8-5.3-11.8-11.8S69 7.3 75.5 7.3s11.8 5.3 11.8 11.8S82 30.9 75.5 30.9zm0-23c-6.2 0-11.3 5.1-11.3 11.3s5.1 11.3 11.3 11.3 11.3-5.1 11.3-11.3S81.7 7.9 75.5 7.9zm0 22.3c-2 0-4-.6-5.8-1.6l-.1-.1v-.2c0-.4.1-.7.1-1 .2-1.3.7-1.6 1.1-1.8.3-.1.3-.2.3-.4-.1-.5.1-.8.2-1.2.2-.4.3-.8.2-1.4-.1-.5-.5-.7-1.2-1-.6-.3-1.5-.7-2.6-1.6-1-.9-1.6-.9-1.9-.9-.5 0-.8-.2-1-1.1-.1-.3-.1-.5-.1-.7v-.1l-.1.1.3-1c.8-3.1 3-5.6 5.8-7l.5-.3.3-.1c.1 0 .2-.1.3-.1h-.1l1.2-.3c1.2-.3 2.4-.4 3.6-.3h.3l-.1.3v.1c-.1.3-.4.4-.6.4-.1.1-.1.1-.2.1-.2 0-.4.1-.6.2-.2.1-.3.3-.5.4l-.3.3c-.3.2-.8.3-1.1.1h-.1v-.1c-.2-.2-.3-.6-.3-.9h-.2c0 .4.1.9.3 1.3.4.2 1 .2 1.4-.1.1-.1.2-.2.4-.3l.4-.4c.2-.1.3-.1.5-.2.1 0 .2 0 .3-.1.4-.1.6-.3.7-.6v-.5h.3c1.1.2 2 .5 2.9.9l.3.1-.2.3c-.2.3-.5.5-.9.6l-.2.1c-.3.1-.5.2-.5.2l-.1.2h.1l.1.3c.1.2.1.4 0 .5-.3.5-1.6.7-1.9.7-.1.1-.6.5-.7 1 0 .3.1.6.4.9.2.2.3.4.3.6 0 .4-.3.6-.8.9-.7.5-1.7 1.3-1.2 3.1.3 1.3 1.1 2 2.3 2 .7 0 1.3-.3 1.5-.3l.1-.1.1.1c.2.2 1.4 1.1 1 4.1-.2 1.2 0 2.1.4 2.6.2.2.4.3.6.3.5 0 1.1-.4 1.6-1.1 1.6-2.2 2-3.1 1.7-4.4-.2-.9.4-1.4.9-1.7.3-.2.4-.3.4-.4 0-.3.2-.5.4-.6.3-.2.4-.4.1-1-.1-.3-.2-.5-.1-.6.1-.1.2-.2.4-.2h.3v.3c.1.6.2 1.3.2 1.9 0 5.8-5 10.8-11.1 10.8zm-5.3-2c1.6 1 3.5 1.5 5.3 1.5 5.8 0 10.4-4.6 10.5-10.4-.2.1-.2.2-.2.2 0 .4-.3.6-.7.8-.6.3-.8.6-.7 1.1.3 1.5-.1 2.6-1.8 4.9-.6.8-1.3 1.3-2 1.3-.5 0-.8-.2-1.1-.5-.5-.6-.7-1.7-.5-3 .3-2.3-.4-3.2-.6-3.5-.3.1-.9.3-1.6.3-.8 0-2.2-.3-2.8-2.4-.6-2.2.7-3.1 1.4-3.7.2-.2.5-.4.5-.5 0 0 0-.1-.1-.2-.4-.4-.6-.9-.5-1.4.1-.7.7-1.2.9-1.3l.1-.1h.2c1-.1 1.4-.3 1.5-.4h-.9l.9-1c.2-.2.4-.3.8-.4h.2c.1 0 .3-.1.4-.2-.6-.3-1.3-.4-2-.6-.1.4-.5.8-1.1.9-.1 0-.2 0-.3.1-.2 0-.3.1-.4.1-.1 0-.2.2-.3.3l-.4.4c-.6.4-1.4.5-2 .1l-.2-.1-.1-.1c-.3-.4-.4-.9-.4-1.4-.1 0-.1 0-.2.1l-.2.2c-.3.3-.3.8 0 1.1l.3.3c.1.1.2.1.3.2.6.5.9 1.2.9 1.9-.1.5-.5 1-1.1 1.7.1.1-.2.4-.2.5-.3.5-.9.9-1.8.4-.2-.1-.4-.3-.5-.3-.1-.1-.1-.1-.2-.1l-.2.2-.1.1c-.6.5-1.2.7-1.8.9-.2.1-.4.1-.5.2-.7.3-1.2.6-1.3 1l-.1.2-.2-.1v.2c.2.7.2.7.5.7.4 0 1.1 0 2.3 1 1 .9 1.8 1.3 2.5 1.6.7.4 1.3.6 1.5 1.4.2.7 0 1.3-.2 1.7-.1.3-.2.6-.2.9.1.6-.3.8-.5 1-.3.2-.7.4-.8 1.4-.2.2-.2.5-.2.8zm-5.3-11.4l.2.1c.3-.4.8-.8 1.5-1.1.2-.1.3-.1.5-.2.6-.2 1.2-.5 1.7-.9l.1-.1c.2-.2.4-.3.6-.3.3 0 .4.1.6.2.1.1.2.2.4.3.5.2.9.2 1.1-.2.1-.1.2-.3.5-.6.5-.6.9-1.1.9-1.4.1-.5-.2-1-.7-1.4-.1-.1-.2-.1-.3-.2-.2-.1-.3-.2-.4-.3-.4-.4-.5-1.1-.2-1.6l-.2-.1-.1.4c-.1.5 0 1.1.3 1.5.1.1.3.3.5.4.1.1.2.1.3.2.3.3.7.7.6 1.2 0 .2-.2.5-.9 1.3-.2.3-.4.5-.5.6-.2.4-.7.2-.8.1-.2-.1-.3-.2-.4-.3-.2-.1-.3-.3-.6-.3s-.5.2-.8.4l-.1.1c-.5.4-1 .6-1.6.8-.2.1-.4.1-.5.2-.5.2-1 .5-1.3.8l-.4.4zm5.6-6.9c-2.3 1.2-4 3.2-4.9 5.7.2-.1.5-.3.7-.4.2-.1.4-.1.5-.2.5-.2 1.1-.4 1.4-.7l.1-.1c.2-.2.6-.5 1.1-.5.5 0 .8.3 1 .4.1.1.2.1.2.2.1 0 .1 0 .1.1.1-.2.3-.4.5-.7.5-.5.7-.9.8-1 0-.3-.2-.6-.4-.7-.1-.1-.2-.1-.2-.2-.2-.1-.4-.3-.5-.4-.2-.5-.4-1-.4-1.5zm3.2-.3c.2 0 .4 0 .5-.1.1-.1.2-.2.3-.2.2-.2.3-.4.6-.5.1-.1.3-.1.4-.2-.6 0-1.2.1-1.8.2-.2.3-.2.6 0 .8zm-4.3 18.8l-.4-.3c-2.9-2.1-4.6-5.4-4.6-9v-1l.5.6c.2.2.4.3.8.3.3 0 .8 0 1.8.9 1.1.9 2 1.4 2.6 1.7.7.4 1 .5 1.1.9.1.5 0 .9-.2 1.3s-.3.7-.2 1.2v.2l-.2.1c-.4.2-1 .6-1.2 1.9 0 .2-.1.4-.1.6l.1.6zM65 19.5c.1 3.1 1.6 5.9 4 7.9v-.2c.2-1.5.9-2 1.3-2.3 0-.5.1-1 .3-1.3.2-.4.2-.6.1-.9 0-.2-.2-.2-.9-.6-.7-.3-1.6-.8-2.7-1.8-.8-.7-1.2-.7-1.4-.7-.3 0-.5 0-.7-.1zm15.6 7.4c-.2 0-.4-.1-.5-.2-.4-.4-.5-1.3-.3-2.4.5-3.4-1.1-4.3-1.1-4.3-.1-.1-.2-.1-.4 0 0 0-.7.3-1.5.3-1.1 0-1.8-.6-2.1-1.9-.4-1.7.5-2.4 1.2-2.9.4-.3.8-.6.8-1 0-.3-.1-.5-.3-.8-.3-.2-.4-.5-.4-.7 0-.3.3-.6.5-.8l.1-.1h.1c1-.1 1.7-.4 2-.8.1-.2.1-.5 0-.7l-.1-.3.6-.2c.6-.2.9-.5 1.1-.8l.1-.2.2.1c2.8 1.5 4.8 4.1 5.6 7.1l.1.3H86c-.3 0-.4.2-.5.3-.1.2-.1.5.1.8.1.2.2.3.2.4v.2l-.1.1-.1.1c-.2.1-.4.3-.5.7v.1l-.1.2c-.1 0-.1.1-.2.1-.5.3-1.3.8-1.1 1.9.2 1.2 0 2-1.7 4.3-.4.7-1 1.1-1.4 1.1zm-2.2-7.5c.2 0 .3 0 .4.1.2.1 1.9 1.1 1.4 4.8-.1.9 0 1.7.2 2h.1c.1 0 .5-.2 1-.8 1.7-2.2 1.8-2.9 1.6-3.9-.3-1.5.8-2.2 1.3-2.5 0 0 .1 0 .1-.1.1-.4.4-.7.6-.8 0 0 0-.1-.1-.1-.4-.7-.2-1.1-.1-1.4.1-.2.3-.4.6-.5-.8-2.7-2.6-5-5.1-6.4-.2.3-.6.6-1.2.8h-.1c.1.3 0 .6-.2.9-.3.5-1.1.9-2.3 1-.1.1-.2.3-.3.4 0 0 0 .1.2.3.4.4.5.8.5 1.2-.1.7-.6 1.1-1 1.4-.7.5-1.3 1-1 2.3.3 1 .7 1.5 1.5 1.5.6 0 1.2-.3 1.2-.3.4.1.6.1.7.1zM179 29.2h-.2c-.2 0-.4-.2-.5-.4l-3.9-7.4-1.9 1.8.1 3.1c0 .2-.1.4-.2.5l-.8.8c-.1.1-.3.2-.5.2s-.4-.1-.5-.3l-2.5-2.9-3-2.4c-.2-.1-.3-.3-.3-.5s.1-.4.2-.6l.8-.8c.1-.1.3-.2.5-.2l3.3.1 1.8-1.8-7.6-3.7c-.2-.1-.3-.3-.4-.5-.1-.2 0-.4.1-.6l1.1-1.6c.2-.2.4-.3.7-.3l10.5 1.8 3.4-3.3c.7-.7 1.8-.9 2.7-.5.2.1.5.2.7.4.2.2.4.4.5.7.4.9.2 2-.5 2.7l-3.4 3.3 1.9 10.1c.1.3-.1.6-.3.7l-1.6 1.1c.1.4 0 .5-.2.5zm-4.3-9.7h.1c.2 0 .4.2.5.4l4 7.5.5-.4-1.9-10c0-.2 0-.5.2-.7l3.6-3.5c.3-.3.4-.7.2-1v-.1c0-.1-.1-.1-.1-.2l-.1-.1s-.1-.1-.2-.1c-.5-.2-.9-.1-1.2.2l-3.6 3.5c-.2.2-.4.2-.6.2l-10.4-1.8-.4.5 7.8 3.8c.2.1.4.3.4.5s0 .5-.2.6l-2.8 2.7c-.1.1-.3.2-.5.2l-3.3-.1 2.4 1.9.1.1 2 2.3-.1-3.1c0-.2.1-.4.2-.5l2.8-2.7c.2 0 .4-.1.6-.1zm7.6-8.5zM26.7 97.3H12.3c-.4 0-.7-.3-.7-.7v-8.7c0-.3.1-.5.4-.6l7.2-4.3c.2-.1.5-.1.7 0l7.2 4.3c.2.1.4.4.4.6v8.7c0 .4-.4.7-.8.7zM13 95.9h13v-7.6l-6.5-3.9-6.5 3.9v7.6z"/><path class="st7" d="M28.2 97.3H10.8c-.4 0-.7-.3-.7-.7 0-.4.3-.7.7-.7h17.4c.4 0 .7.3.7.7 0 .4-.3.7-.7.7zm1.4-9.9c-.1 0-.3 0-.4-.1l-9.8-6-9.8 6c-.3.2-.8.1-1-.2-.2-.3-.1-.8.2-1l10.1-6.3c.2-.1.5-.1.8 0L30 86.1c.3.2.4.7.2 1-.1.2-.3.3-.6.3z"/><path class="st7" d="M20.9 97.3H18c-.4 0-.7-.3-.7-.7v-5c0-.8.7-1.5 1.5-1.5h1.4c.8 0 1.5.7 1.5 1.5v5c0 .4-.3.7-.8.7zm-2.1-1.4h1.4v-4.3h-1.4v4.3zM239 97.5h-13c-.8 0-1.5-.7-1.5-1.5V82.3c0-1.6 1.3-3 3-3h10c1.6 0 3 1.3 3 3V96c0 .8-.7 1.5-1.5 1.5zm-11.5-16.7c-.8 0-1.5.7-1.5 1.5V96h13V82.3c0-.8-.7-1.5-1.5-1.5h-10z"/><path class="st7" d="M226.7 90.2h11.6v1.4h-11.6zm2.9 4.4h-2.2c-.4 0-.7-.3-.7-.7s.3-.7.7-.7h2.2c.4 0 .7.3.7.7s-.3.7-.7.7zm8 0h-2.2c-.4 0-.7-.3-.7-.7s.3-.7.7-.7h2.2c.4 0 .7.3.7.7s-.3.7-.7.7zm4.3-5.8c-.4 0-.7-.3-.7-.7v-1.8c0-.2-.2-.4-.4-.4h-1.1c-.4 0-.7-.3-.7-.7 0-.4.3-.7.7-.7h1.1c1 0 1.8.8 1.8 1.8v1.8c0 .4-.3.7-.7.7zm-18.8 0c-.4 0-.7-.3-.7-.7v-1.8c0-1 .8-1.8 1.8-1.8h1.1c.4 0 .7.3.7.7 0 .4-.3.7-.7.7h-1.1c-.2 0-.4.2-.4.4v1.8c0 .4-.3.7-.7.7zm5.1 8.7v.7h-.7v-.7h.7m0-1.5h-.7c-.8 0-1.4.6-1.4 1.4v.7c0 .8.6 1.4 1.4 1.4h.7c.8 0 1.4-.6 1.4-1.4v-.7c0-.7-.6-1.4-1.4-1.4zm9.4 1.5v.7h-.7v-.7h.7m0-1.5h-.7c-.8 0-1.4.6-1.4 1.4v.7c0 .8.6 1.4 1.4 1.4h.7c.8 0 1.4-.6 1.4-1.4v-.7c0-.7-.6-1.4-1.4-1.4zm-5.8-6.6c-.1 0-.3-.1-.4-.2-.3-.2-.3-.6-.1-.9l5.1-5.8c.2-.3.6-.3.9-.1.3.2.3.6.1.9l-5.1 5.8c-.2.2-.3.3-.5.3zm-2.9-1.4c-.1 0-.3 0-.4-.1-.3-.2-.3-.6-.1-.9l3.6-4.3c.2-.3.6-.3.9-.1.3.2.3.6.1.9l-3.6 4.3c-.2.1-.3.2-.5.2z"/></svg>