<svg id="Layer_3" xmlns="http://www.w3.org/2000/svg" xmlns:xlink="http://www.w3.org/1999/xlink" viewBox="0 0 251.5 130"><style>.st0{opacity:.2;fill:none;stroke:#0073ae;stroke-width:2;stroke-linecap:round;stroke-linejoin:round;stroke-miterlimit:10}.st3{fill:#ffdbb2}.st5{fill:#0073ae}.st11{fill:none;stroke:#0073ae;stroke-width:2;stroke-linecap:round;stroke-linejoin:round;stroke-miterlimit:10}</style><circle class="st0" cx="173.2" cy="19.6" r="18"/><circle class="st0" cx="75.2" cy="19.3" r="18"/><circle class="st0" cx="19.2" cy="89.7" r="18"/><circle class="st0" cx="232.2" cy="89.7" r="18"/><path d="M82.2 39.7l5 14m78.5-14.5l-7 19m51 39l-30 5m-139-7l33 6" opacity=".3" stroke-width="3" stroke-dasharray="0,7" fill="none" stroke="#0073ae" stroke-linecap="round" stroke-linejoin="round" stroke-miterlimit="10"/><path d="M175.4 125.2c0 1.8-1.5 3.3-3.3 3.3H78.4c-1.8 0-3.3-1.5-3.3-3.3V55c0-1.8 1.5-3.3 3.3-3.3h93.7c1.8 0 3.3 1.5 3.3 3.3v70.2" fill="#fff" stroke="#0073ae" stroke-width="2" stroke-miterlimit="10"/><path class="st3" d="M171.6 118.4H78.9V55.6h92.7v62.8"/><path d="M171.6 57.1H78.9v-1.5h92.7v1.5m-11.4 61.3h-70v-3.2c0-.3.3-.6.6-.6h68.7c.3 0 .6.3.6.6v3.2" opacity=".5" fill="#f80"/><circle class="st5" cx="125.3" cy="53.7" r=".8"/><path d="M138.5 122.2c-.6 1.6-2.2 2.7-4 2.7h-19c-1.8 0-3.4-1.1-4-2.7h-50v2c0 2.5 2 4.5 4.5 4.5h117.9c2.5 0 4.5-2 4.5-4.5v-2h-49.9z" fill="#b2d5e6" stroke="#0073ae" stroke-width="2" stroke-linecap="round" stroke-linejoin="round" stroke-miterlimit="10"/><path fill="none" stroke="#ffdbb2" stroke-width="2" stroke-miterlimit="10" d="M155.4 113.5v4.9"/><path d="M138.6 107.5h-27.2c-.9 0-1.6-.7-1.6-1.6V67.4c0-.9.7-1.6 1.6-1.6h27.2c.9 0 1.6.7 1.6 1.6V106c0 .8-.7 1.5-1.6 1.5z" fill="#fff"/><circle class="st3" cx="125" cy="83.7" r="9.8"/><defs><circle id="SVGID_1_" cx="125" cy="83.7" r="9.8"/></defs><clipPath id="SVGID_2_"><use xlink:href="#SVGID_1_" overflow="visible"/></clipPath><g clip-path="url(#SVGID_2_)"><path d="M132.4 90.9l-.7-2.5c-.1-.3-.3-.6-.6-.7l-4.1-1.8v-.7c.6-.8 1-1.9 1-3.1v-1c0-1.7-1.3-3.2-3-3.2s-3 1.4-3 3.2v1c0 1.2.4 2.3 1 3.1v.7l-4.1 1.8c-.2.1-.5.4-.6.7l-.7 2.5c-.1.3.1.5.4.5l7 3.6 7-3.6c.3 0 .4-.2.4-.5z" fill="#fff" stroke="#0073ae" stroke-width="2" stroke-linecap="round" stroke-linejoin="round" stroke-miterlimit="10"/></g><circle class="st11" cx="125" cy="83.7" r="9.8"/><path class="st3" d="M122 104.8h-6.5c-1 0-1.9-.9-1.9-1.9 0-1 .9-1.9 1.9-1.9h6.5c1 0 1.9.9 1.9 1.9 0 1.1-.9 1.9-1.9 1.9z"/><path d="M134.5 104.8H128c-1 0-1.9-.9-1.9-1.9 0-1 .9-1.9 1.9-1.9h6.5c1 0 1.9.9 1.9 1.9 0 1.1-.9 1.9-1.9 1.9z" fill="#b2d5e6"/><g><path class="st11" d="M222.4 94.6l8.2-7.1c-.5-2.2.2-4.6 2-6.2 2.1-1.8 5-2 7.3-.7l-4.5 4 2.8 3.2 4.5-4.1c1 2.4.4 5.2-1.7 7-1.8 1.6-4.3 2-6.4 1.1l-8.2 7.1c-1.2 1.1-3.1.9-4.1-.2-1.2-1.2-1.1-3.1.1-4.1z"/></g><g><path class="st5" d="M28.4 88.9c-.4 0-.7-.3-.7-.7v-.7c0-4.5-3.6-8.1-8.1-8.1h-.7c-4.5 0-8.1 3.6-8.1 8.1v.7c0 .4-.3.7-.7.7-.4 0-.7-.3-.7-.7v-.7c0-5.3 4.3-9.6 9.6-9.6h.7c5.3 0 9.6 4.3 9.6 9.6v.7c-.1.4-.4.7-.9.7z"/><path class="st5" d="M28.4 96.3c-1.6 0-3-1.3-3-3v-3c0-1.6 1.3-3 3-3 1.6 0 3 1.3 3 3v3c0 1.7-1.3 3-3 3zm0-7.4c-.8 0-1.5.7-1.5 1.5v3c0 .8.7 1.5 1.5 1.5s1.5-.7 1.5-1.5v-3c0-.8-.6-1.5-1.5-1.5zM10 96.3c-1.6 0-3-1.3-3-3v-3c0-1.6 1.3-3 3-3s3 1.3 3 3v3c-.1 1.7-1.4 3-3 3zm0-7.4c-.8 0-1.5.7-1.5 1.5v3c0 .8.7 1.5 1.5 1.5s1.5-.7 1.5-1.5v-3c0-.8-.7-1.5-1.5-1.5z"/><path class="st5" d="M18.8 101.5c-.4 0-.7-.3-.7-.7 0-.4.3-.7.7-.7 8.7 0 8.9-4.3 8.9-4.4 0-.4.3-.7.7-.7.4 0 .7.3.7.7.1.1 0 5.8-10.3 5.8z"/><path class="st5" d="M19.2 97.8c.6 0 1.1.5 1.1 1.1 0 .6-.5 1.1-1.1 1.1-.6 0-1.1-.5-1.1-1.1 0-.6.5-1.1 1.1-1.1m0-1.3c-1.3 0-2.4 1.1-2.4 2.4 0 1.3 1.1 2.4 2.4 2.4 1.3 0 2.4-1.1 2.4-2.4 0-1.3-1.1-2.4-2.4-2.4zm-6.5-11.9c-.5 0-.9-.2-1.2-.5l-.6-.5c-.3-.3-.3-.7 0-1 .3-.3.7-.3 1 0l.6.5c.1.1.2.1.2.1.1 0 .2-.1.3-.1 1.5-1.8 3.6-2.9 5.9-2.9h.6c2.2 0 4.3 1 5.8 2.8.1.1.2.1.2.1.1 0 .2 0 .3-.1l.6-.7c.3-.3.7-.4 1-.1.3.3.4.7.1 1l-.6.7c-.3.4-.9.7-1.4.7-.5 0-1-.2-1.3-.6-1.2-1.5-2.9-2.3-4.7-2.3h-.6c-1.8 0-3.5.9-4.7 2.4-.3.4-.8.7-1.3.7-.1-.2-.1-.2-.2-.2z"/></g><g><path class="st5" d="M175.1 25.4h-3.9c-1.1 0-2-.9-2-2-.2-.8-.7-1.4-1.4-2.1-1.1-1.2-2.5-2.6-2.5-5.7 0-4.2 3.5-7.6 7.8-7.6s7.8 3.4 7.8 7.6c0 3.1-1.4 4.5-2.5 5.7-.7.7-1.2 1.2-1.4 2.1.1 1.1-.8 2-1.9 2zm-1.9-15.9c-3.5 0-6.3 2.8-6.3 6.2 0 2.5 1.1 3.6 2.1 4.7.8.8 1.5 1.6 1.8 2.9v.1c0 .3.2.6.5.6h3.9c.3 0 .5-.3.5-.6v-.1c.2-1.3 1-2.1 1.8-2.9 1-1 2.1-2.1 2.1-4.6 0-3.6-2.9-6.3-6.4-6.3zm2.3 18.1H171c-.4 0-.7-.3-.7-.7 0-.4.3-.7.7-.7h4.4c.4 0 .7.3.7.7.1.4-.2.7-.6.7z"/><path class="st5" d="M172.5 18h1.5v6.6h-1.5zm3 11.8H171c-.4 0-.7-.3-.7-.7s.3-.7.7-.7h4.4c.4 0 .7.3.7.7s-.2.7-.6.7zm-1.5 1.5h-1.5c-.4 0-.7-.3-.7-.7 0-.4.3-.7.7-.7h1.5c.4 0 .7.3.7.7 0 .3-.3.7-.7.7z"/><path class="st5" d="M173.3 14.3c.8 0 1.5.7 1.5 1.5s-.7 1.5-1.5 1.5-1.5-.7-1.5-1.5c0-.9.6-1.5 1.5-1.5m0-1.5c-1.6 0-3 1.3-3 3s1.3 3 3 3c1.6 0 3-1.3 3-3s-1.4-3-3-3z"/></g><g><path class="st5" d="M75.6 31.1c-6.5 0-11.8-5.3-11.8-11.8 0-2 .5-4 1.5-5.8.2-.4.7-.5 1-.3.4.2.5.7.3 1-.9 1.5-1.3 3.3-1.3 5.1 0 5.7 4.6 10.3 10.3 10.3S85.9 25 85.9 19.3 81.3 8.9 75.6 8.9c-.4 0-.7-.3-.7-.7 0-.4.3-.7.7-.7 6.5 0 11.8 5.3 11.8 11.8s-5.3 11.8-11.8 11.8z"/><path class="st5" d="M67 16.3l-.6-3-3 .6-.4-1.4 3.7-.8c.4-.1.8.2.9.6l.8 3.7-1.4.3zm8.2 2.2c.6 0 1.1.5 1.1 1.1 0 .6-.5 1.1-1.1 1.1-.6 0-1.1-.5-1.1-1.1 0-.6.5-1.1 1.1-1.1m0-1.3c-1.3 0-2.4 1.1-2.4 2.4 0 1.3 1.1 2.4 2.4 2.4 1.3 0 2.4-1.1 2.4-2.4 0-1.3-1.1-2.4-2.4-2.4z"/><path class="st5" d="M76.3 19.2c-.2 0-.3-.1-.5-.2-.3-.3-.3-.7 0-.9l4.4-4.4c.3-.3.7-.3.9 0 .3.3.3.7 0 .9L76.8 19c-.2.1-.3.2-.5.2zm2.9 5.2c-.2 0-.3-.1-.5-.2l-3-3c-.3-.3-.3-.7 0-.9.3-.3.7-.3.9 0l3 3c.3.3.3.7 0 .9 0 .1-.2.2-.4.2z"/></g></svg>