<svg id="Layer_3" xmlns="http://www.w3.org/2000/svg" viewBox="0 0 733 186"><style>.st0{opacity:.3}.st15,.st2,.st3,.st5{fill:none;stroke:#0073ae;stroke-width:3;stroke-linecap:round;stroke-linejoin:round}.st2{stroke-dasharray:0,6.6667}.st3{stroke-dasharray:0,8}.st5{stroke-dasharray:0,7.3333}.st15{stroke-dasharray:0,7}.st19,.st20{fill:#b2d5e6;stroke:#0073ae;stroke-width:2;stroke-miterlimit:10}.st20{fill:#fff}.st24{stroke-linecap:round;stroke-linejoin:round;opacity:.2}.st24,.st26{fill:none;stroke:#0073ae;stroke-width:2;stroke-miterlimit:10}.st26,.st27{stroke-linecap:round;stroke-linejoin:round}.st27,.st28{fill-rule:evenodd;clip-rule:evenodd;fill:none;stroke:#0073ae;stroke-width:2;stroke-miterlimit:10}.st30{fill:#0073ae}.st31{stroke-linecap:round;stroke-linejoin:round;fill:none;stroke:#0073ae;stroke-width:1.75;stroke-miterlimit:10}</style><g class="st0"><path class="st2" d="M216.4 26.7h10"/><path class="st3" d="M229.8 34.7v4"/><path fill="none" stroke="#0073ae" stroke-width="3" stroke-linecap="round" stroke-linejoin="round" stroke-dasharray="0,6.625" d="M236.4 42.7h43"/></g><g class="st0"><path class="st5" d="M102.1 46.7h11"/><path class="st3" d="M116.8 54.7v12"/><path fill="none" stroke="#0073ae" stroke-width="3" stroke-linecap="round" stroke-linejoin="round" stroke-dasharray="0,6.9167" d="M123.7 70.7h155.6"/></g><g class="st0" fill="none" stroke="#0073ae" stroke-width="3" stroke-linecap="round" stroke-linejoin="round"><path stroke-dasharray="0,7.1176" d="M62.9 119.7h110.3"/><path stroke-dasharray="0,6.25" d="M176.8 113.4V97.8"/><path stroke-dasharray="0,7.0667" d="M183.8 94.7h95.4"/></g><g class="st0" fill="none" stroke="#0073ae" stroke-width="3" stroke-linecap="round" stroke-linejoin="round"><path stroke-dasharray="0,7.25" d="M162 160.7h47.1"/><path stroke-dasharray="0,7.4" d="M212.8 153.3v-25.9"/><path stroke-dasharray="0,6.9" d="M219.6 123.7h58.7"/></g><g class="st0"><path class="st2" d="M580.1 26.7h-50"/><path fill="none" stroke="#0073ae" stroke-width="3" stroke-linecap="round" stroke-linejoin="round" stroke-dasharray="0,7.2" d="M526.8 33.9v25.2"/><path class="st2" d="M520.1 62.7h-50"/></g><g class="st0"><path fill="none" stroke="#0073ae" stroke-width="3" stroke-linecap="round" stroke-linejoin="round" stroke-dasharray="0,7.0625" d="M670.7 66.7H568.3"/><path class="st3" d="M564.8 74.7v12"/><path class="st15" d="M557.8 90.7h-87.5"/></g><g class="st0"><path fill="none" stroke="#0073ae" stroke-width="3" stroke-linecap="round" stroke-linejoin="round" stroke-dasharray="0,7.6667" d="M640.1 142.7h-11.5"/><path class="st15" d="M624.8 135.7v-17.5"/><path fill="none" stroke="#0073ae" stroke-width="3" stroke-linecap="round" stroke-linejoin="round" stroke-dasharray="0,6.8696" d="M617.9 114.7H470.2"/></g><g class="st0"><path fill="none" stroke="#0073ae" stroke-width="3" stroke-linecap="round" stroke-linejoin="round" stroke-dasharray="0,6" d="M521.8 159.7h-9"/><path class="st3" d="M509.8 151.7v-4"/><path class="st5" d="M502.4 143.7h-33"/></g><path class="st19" d="M447.6 147.2h-148c-2.2 0-4-1.8-4-4V15.5c0-2.2 1.8-4 4-4h148c2.2 0 4 1.8 4 4v127.8c0 2.1-1.8 3.9-4 3.9z"/><path class="st19" d="M350.7 15.5v127.8c0 2.2 1.8 4 4 4h93c2.2 0 4-1.8 4-4V15.5c0-2.2-1.8-4-4-4h-93c-2.2 0-4 1.8-4 4z"/><path class="st20" d="M451.6 15.2c0-2-1.8-3.6-4-3.6h-93c-2.2 0-4 1.6-4 3.6v39.6c0 12.6 22.6 22.9 50.4 22.9 27.9 0 50.4-10.3 50.4-22.9 0-.4 0-.7-.1-1.1 0-.1 0-.1.1-.2V15.2z"/><path d="M430.9 61.9h-59.6c-1.7 0-3-1.3-3-3V25.7c0-1.7 1.3-3 3-3h59.6c1.7 0 3 1.3 3 3v33.2c0 1.6-1.3 3-3 3z" fill="#ffdbb2" stroke="#f80" stroke-width="2" stroke-miterlimit="10"/><path class="st20" d="M383.9 94.6h-5.2c-1.8 0-3.2-1.4-3.2-3.2v-5.2c0-1.8 1.4-3.2 3.2-3.2h5.2c1.8 0 3.2 1.4 3.2 3.2v5.2c0 1.7-1.4 3.2-3.2 3.2zm19.3 0H398c-1.8 0-3.2-1.4-3.2-3.2v-5.2c0-1.8 1.4-3.2 3.2-3.2h5.2c1.8 0 3.2 1.4 3.2 3.2v5.2c0 1.7-1.4 3.2-3.2 3.2zm19.4 0h-5.2c-1.8 0-3.2-1.4-3.2-3.2v-5.2c0-1.8 1.4-3.2 3.2-3.2h5.2c1.8 0 3.2 1.4 3.2 3.2v5.2c0 1.7-1.5 3.2-3.2 3.2zm-38.7 19.3h-5.2c-1.8 0-3.2-1.4-3.2-3.2v-5.2c0-1.8 1.4-3.2 3.2-3.2h5.2c1.8 0 3.2 1.4 3.2 3.2v5.2c0 1.7-1.4 3.2-3.2 3.2zm19.3 0H398c-1.8 0-3.2-1.4-3.2-3.2v-5.2c0-1.8 1.4-3.2 3.2-3.2h5.2c1.8 0 3.2 1.4 3.2 3.2v5.2c0 1.7-1.4 3.2-3.2 3.2zm19.4 0h-5.2c-1.8 0-3.2-1.4-3.2-3.2v-5.2c0-1.8 1.4-3.2 3.2-3.2h5.2c1.8 0 3.2 1.4 3.2 3.2v5.2c0 1.7-1.5 3.2-3.2 3.2zm-38.7 19.3h-5.2c-1.8 0-3.2-1.4-3.2-3.2v-5.2c0-1.8 1.4-3.2 3.2-3.2h5.2c1.8 0 3.2 1.4 3.2 3.2v5.2c0 1.8-1.4 3.2-3.2 3.2zm19.3 0H398c-1.8 0-3.2-1.4-3.2-3.2v-5.2c0-1.8 1.4-3.2 3.2-3.2h5.2c1.8 0 3.2 1.4 3.2 3.2v5.2c0 1.8-1.4 3.2-3.2 3.2zm19.4 0h-5.2c-1.8 0-3.2-1.4-3.2-3.2v-5.2c0-1.8 1.4-3.2 3.2-3.2h5.2c1.8 0 3.2 1.4 3.2 3.2v5.2c0 1.8-1.5 3.2-3.2 3.2z"/><path d="M308.9 139.3c-.3 1.2-.4 2.5-.4 3.9 0 1.3.2 2.6.4 3.9h34.5c.3-1.3.4-2.5.4-3.9 0-1.3-.2-2.6-.4-3.9-1.5-14.1-5.9-64.3 2.5-107.9 1.2-2.7 1.8-5.6 1.8-8.7 0-4.1-1.1-7.9-3.1-11.2h-36.9c-2 3.3-3.1 7.1-3.1 11.2 0 3.1.7 6 1.8 8.7 8.3 43.6 4 93.8 2.5 107.9zM451.6 15c0-.9-.4-1.7-1-2.3-.7-.8-1.7-1.2-2.9-1.2h-5.6v135.7h5.6c2.2 0 4-1.8 4-4V15.5c-.1-.2-.1-.3-.1-.5z" opacity=".5" fill="#0073ae"/><path class="st20" d="M342.3 31.4c1.2-2.7 1.8-5.6 1.8-8.7 0-11.9-9.6-21.6-21.6-21.6S301 10.8 301 22.7c0 3.1.7 6 1.8 8.7 8.3 43.6 4 93.8 2.5 107.9-.3 1.2-.4 2.5-.4 3.9 0 9.8 7.9 17.7 17.7 17.7 9.8 0 17.7-7.9 17.7-17.7 0-1.3-.2-2.6-.4-3.9-1.6-14.1-5.9-64.3 2.4-107.9z"/><path d="M396.6 52.4l-2.3 2.8m23-27l-17.6 20.6m5.6-18.6l-13 15" fill="none" stroke="#fff" stroke-width="2" stroke-miterlimit="10" stroke-linecap="round" stroke-linejoin="round"/><circle class="st24" cx="616.8" cy="26.7" r="24.5"/><circle class="st24" cx="179.8" cy="26.7" r="24.5"/><circle class="st24" cx="64.8" cy="46.7" r="24.5"/><circle class="st24" cx="25.8" cy="119.7" r="24.5"/><circle class="st24" cx="125.8" cy="160.7" r="24.5"/><circle class="st24" cx="706.8" cy="65.7" r="24.5"/><circle class="st24" cx="676.8" cy="143.7" r="24.5"/><circle class="st24" cx="556.8" cy="159.7" r="24.5"/><path d="M616.8 10.7c-8.8 0-15.9 7.1-15.9 15.9s7.1 15.9 15.9 15.9 15.9-7.1 15.9-15.9-7.2-15.9-15.9-15.9zm14.4 12.4c-.6.1-.9.4-1 .6-.2.3-.3.8.1 1.5.2.3.2.4.2.5l-.1.1c-.3.2-.7.5-.8 1.1-.1.1-.2.1-.3.2-.6.4-2 1.2-1.6 3 .3 1.6 0 2.6-2.2 5.6-.7.9-1.3 1.3-1.7 1.3-.2 0-.3-.1-.4-.2-.4-.5-.6-1.6-.4-3 .7-4.9-1.5-6.2-1.8-6.3-.3-.1-.6-.1-.8 0 0 0-.9.4-1.9.4-1.3 0-2.1-.8-2.5-2.3-.5-2.1.5-2.9 1.5-3.6.6-.4 1.2-.9 1.3-1.7 0-.5-.2-.9-.6-1.4-.3-.3-.4-.5-.4-.8 0-.3.3-.6.6-.8 1.1-.1 2.5-.4 3-1.3.2-.4.3-.9.1-1.3.1 0 .2 0 .2-.1l.3-.1c.9-.3 1.4-.8 1.7-1.3 3.7 2.2 6.5 5.7 7.5 9.9zm-14.4-11.3c.4 0 .9 0 1.3.1v.2c0 .1-.2.3-.5.3-.1 0-.2.1-.3.1-.3.1-.6.1-.9.3-.3.2-.5.4-.8.6l-.4.4c-.3.2-.8.3-1.2.1-.3-.4-.4-1-.2-1.5l-.6-.1c1.1-.4 2.3-.5 3.6-.5zm-6.5 1.4c-.2.8 0 1.7.6 2.4.2.2.5.4.7.6l.3.3c.4.3.8.8.7 1.4 0 .3-.8 1.2-1.1 1.6-.3.4-.6.7-.7.9-.1.1-.1.3-.6 0-.2-.1-.3-.2-.4-.3-.2-.2-.5-.4-1.1-.5-.6 0-1 .3-1.3.6l-.1.1c-.6.5-1.3.8-2.1 1-.2.1-.5.2-.7.3-.8.3-1.4.7-1.9 1.1.9-4.2 3.8-7.6 7.7-9.5zm-8.4 13.5v-.3c.3.4.8.6 1.4.6.4 0 1 0 2.2 1.1 1.5 1.3 2.8 1.9 3.7 2.4 1 .5 1.3.7 1.4 1 .2.6 0 1-.2 1.5s-.5 1.1-.4 1.9c-.6.3-1.6.9-1.8 2.9 0 .3-.1.6-.1.9-3.8-2.7-6.2-7.1-6.2-12zm14.9 14.9c-2.8 0-5.5-.8-7.8-2.2 0-.5.1-1 .1-1.4.2-1.6.8-1.9 1.3-2.2.4-.2.7-.4.6-1-.1-.5.1-1 .3-1.5.2-.6.5-1.2.2-2.1-.2-.9-.9-1.2-1.9-1.7-.9-.4-2.1-1-3.5-2.2-1.5-1.3-2.4-1.3-2.9-1.3s-.7 0-1-1.2c-.1-.4-.2-.6-.2-.8v-.1l.5.2c.3-.6 1-1.2 2-1.6.2-.1.5-.2.7-.3.8-.3 1.7-.6 2.4-1.2l.1-.1c.2-.2.4-.4.6-.4.2 0 .3.1.5.2s.3.3.6.4c1.2.6 1.8-.1 2-.4.1-.1.4-.5.6-.8.8-.9 1.3-1.6 1.4-2.1.1-.8-.3-1.7-1.1-2.3-.1-.1-.3-.2-.4-.3-.2-.1-.4-.3-.5-.4-.5-.5-.5-1.5 0-2l-.2-.1c.4-.2.9-.3 1.3-.4-.1.8 0 1.6.5 2.2l.1.1.1.1c.3.2.7.3 1 .3.5 0 1-.1 1.3-.4.2-.2.4-.3.5-.5.2-.2.3-.4.5-.5.2-.1.4-.1.6-.2.1 0 .2-.1.4-.1.6-.2 1.1-.5 1.2-1 0-.1 0-.2.1-.3 1.3.2 2.5.6 3.7 1.1-.2.3-.5.6-1.1.7l-.3.1c-.6.2-.8.2-.9.4l-.7.8h.7c0 .1 0 .1.1.2s.1.3 0 .4c-.2.4-1.2.7-2.4.8h-.1l-.1.1c-.3.2-1 .8-1.1 1.6-.1.5.1 1.1.6 1.6.3.3.3.5.3.6 0 .3-.4.6-.9 1-1 .8-2.6 1.9-1.9 4.7.7 2.5 2.3 3.1 3.5 3.1 1.1 0 2-.4 2.3-.5.3.2 1.7 1.4 1.2 5.3-.2 1.7 0 3.1.6 3.8.3.4.7.5 1.2.5h.1c.8 0 1.7-.6 2.5-1.7 2.3-3.1 2.8-4.5 2.4-6.4-.2-1.1.4-1.5 1.1-2 .4-.3.8-.5.8-.8 0-.2.2-.4.4-.6.6-.4.8-.9.2-1.9-.1-.1-.2-.4-.1-.5.1-.1.2-.1.3-.2.1.8.2 1.7.2 2.6.2 8.1-6.4 14.8-14.6 14.8z" fill="#0073ae" stroke="#0073ae" stroke-width=".75" stroke-miterlimit="10"/><path class="st26" d="M719.3 54.6c-.1-.2-.2-.5-.4-.7-.2-.2-.4-.3-.7-.4-.9-.4-2-.3-2.7.4l-5 4.9-15-2.6-1.6 2.1 11.8 5.7-3.8 3.7-4.9-.1-1.1 1.1 4.2 3.3 3.5 4 1.1-1.1-.1-4.8 3.9-3.7 6 11.4 2.2-1.5-2.8-14.5 5-4.9c.7-.4.8-1.5.4-2.3z"/><path class="st27" d="M567.3 169.2h-20v-12l10-6 10 6zm2 0h-24"/><path class="st27" d="M543.3 155.5l14-8.7 14 8.7m-12 13.7h-4v-6.9c0-.6.5-1.1 1.1-1.1h1.9c.6 0 1.1.5 1.1 1.1v6.9z"/><path class="st28" d="M686.2 154.2h-17.9c-.6 0-1-.5-1-1v-18.9c0-1.7 1.4-3.1 3.1-3.1h13.8c1.7 0 3.1 1.4 3.1 3.1v18.9c0 .5-.5 1-1.1 1z"/><path fill="none" stroke="#0073ae" stroke-width="2" stroke-miterlimit="10" d="M669.3 146.2h16"/><path class="st26" d="M670.3 150.2h3m8 0h3m6-8v-2.5c0-.9-.7-1.5-1.5-1.5h-1.5m-23 4v-2.5c0-.9.7-1.5 1.5-1.5h1.5"/><path class="st30" d="M671.3 155.2v1h-1v-1h1m0-2h-1c-1.1 0-2 .9-2 2v1c0 1.1.9 2 2 2h1c1.1 0 2-.9 2-2v-1c0-1.2-.9-2-2-2zm13 2v1h-1v-1h1m0-2h-1c-1.1 0-2 .9-2 2v1c0 1.1.9 2 2 2h1c1.1 0 2-.9 2-2v-1c0-1.2-.9-2-2-2z"/><path class="st31" d="M683.3 135.2l-7 8m1-8l-5 6"/><path class="st26" d="M64.7 31.2c-4.5 0-9.4 3.3-9.4 9.2 0 6.8 6.3 13.1 9.4 16.8 3.1-3.7 9.4-10.1 9.4-16.8.1-5.9-5-9.2-9.4-9.2zm0 14.2c-2.4 0-4.3-2-4.3-4.5s1.9-4.5 4.3-4.5 4.3 2 4.3 4.5-2 4.5-4.3 4.5z"/><path class="st31" d="M59.3 56.4c-1.8.4-3 1-3 1.7 0 1.3 3.8 2.3 8.5 2.3s8.5-1 8.5-2.3c0-.7-1.2-1.3-3-1.7"/><path class="st28" d="M36 127.8H15.8v-.1c-3.2-.5-5.6-3.3-5.6-6.6 0-3.7 3-6.6 6.6-6.6h.5c1.4-3.1 4.4-5.1 7.8-5.1 2.7 0 5.2 1.3 6.8 3.5.3-.1.6-.1 1-.1 1.8 0 3.2 1.3 3.6 2.9 2.8.5 4.9 3 4.9 6 0 3.1-2.3 5.7-5.4 6.1z"/><path class="st30" d="M131.4 149.1c.4 0 .8.2 1.1.5.4.6.8 1 .8 1l-11 9.5 11 9.5-.8 1c-.3.3-.7.5-1.1.5-.3 0-.6-.1-.9-.3l-10.9-8.5-2 1.7c.4 1.5 0 3.2-1.2 4.2-.7.6-1.6.9-2.5.9h-.4c-1-.1-2-.6-2.6-1.4-.6-.7-.9-1.6-.9-2.5 0-1.2.5-2.3 1.5-3.1.7-.6 1.6-.9 2.5-.9h.4c.1 0 .3.1.4.1l1.8-1.2-1.8-1.2c-.1 0-.3.1-.4.1h-.4c-.9 0-1.8-.3-2.5-.9-.9-.8-1.5-1.9-1.5-3.1 0-.9.3-1.8.9-2.5.7-.8 1.6-1.3 2.6-1.4h.4c.9 0 1.8.3 2.5.9 1.2 1 1.7 2.7 1.2 4.2l2 1.7 10.9-8.5c.2-.2.5-.3.9-.3m-17.6 7.8h.2c.5-.1.9-.3 1.2-.7.3-.3.4-.7.4-1.1 0-.5-.2-1-.7-1.4-.3-.3-.7-.4-1.1-.4h-.2c-.5.1-.9.3-1.2.7-.6.7-.5 1.9.3 2.5.3.3.7.4 1.1.4m5.7 4.3c.6 0 1.1-.5 1.1-1.1 0-.6-.5-1.1-1.1-1.1-.6 0-1.1.5-1.1 1.1.1.6.5 1.1 1.1 1.1m-5.7 5.7c.4 0 .8-.1 1.1-.4.4-.3.7-.8.7-1.4 0-.4-.1-.8-.4-1.1-.3-.4-.7-.6-1.2-.7h-.2c-.4 0-.8.1-1.1.4-.7.6-.9 1.8-.3 2.5.3.4.7.6 1.2.7h.2m17.6-19.5c-.7 0-1.3.2-1.9.6l-9.8 7.7-.2-.1c.1-1.9-.6-3.7-2-4.9-1-.8-2.3-1.3-3.6-1.3h-.6c-1.5.2-2.9.9-3.8 2.1-.8 1-1.3 2.3-1.3 3.6 0 1.7.8 3.3 2.1 4.4l.9.6-.9.6c-1.3 1.1-2.1 2.7-2.1 4.4 0 1.3.4 2.6 1.3 3.6 1 1.2 2.3 1.9 3.8 2.1h.6c1.3 0 2.6-.5 3.6-1.3 1.4-1.2 2.2-3 2-4.9l.2-.1 9.8 7.7c.6.4 1.2.6 1.9.6 1 0 1.9-.4 2.4-1.1.4-.6.8-1 .8-1l1.1-1.3-1.3-1.1-9.5-8.2 9.5-8.2 1.3-1.1-1.1-1.3-.8-1c-.6-.7-1.5-1.1-2.4-1.1zm-17.6 7.8s0-.1 0 0c0-.1 0-.1 0 0zm0 10s0-.1 0 0z"/><path d="M131.6 163.8s12.7-5.7 12.2-11.4m-23.4 25.9s-.3-7 5.9-10.6" fill="none" stroke="#0073ae" stroke-width="1.75" stroke-miterlimit="10"/><path class="st30" d="M191.2 15.3c-.2-.2-.4-.3-.6-.3-.2 0-.5.1-.6.3l-.1.1c-.3.3-.3.9 0 1.3 2.5 2.7 3.9 6.2 3.9 9.9s-1.4 7.2-3.9 9.9c-.3.4-.3.9 0 1.3l.1.2c.3.3.9.3 1.2 0 2.9-3 4.5-7.1 4.5-11.3 0-4.3-1.6-8.3-4.5-11.4zm-5.2 5.2c-.2 0-.5.1-.6.3l-.1.1c-.3.3-.3.9 0 1.3 1.2 1.2 1.8 2.8 1.8 4.6s-.6 3.3-1.8 4.6c-.3.3-.3.9 0 1.3l.1.1c.3.3.9.3 1.2 0 1.5-1.6 2.3-3.7 2.3-5.9s-.8-4.3-2.3-5.9c-.1-.4-.4-.5-.6-.5zm-16.4-5l-.1-.1c-.2-.2-.4-.3-.6-.3-.2 0-.5.1-.6.3-2.9 3-4.5 7.1-4.5 11.3 0 4.3 1.6 8.3 4.5 11.3.3.3.9.3 1.2 0l.1-.1c.3-.3.3-.9 0-1.3-2.5-2.7-3.9-6.2-3.9-9.9s1.4-7.2 3.9-9.9c.4-.4.4-1 0-1.3zm4.6 5.3c-.2-.2-.5-.3-.7-.3-.2 0-.5.1-.6.3-1.5 1.6-2.3 3.7-2.3 5.9s.8 4.3 2.3 5.9c.3.3.9.3 1.2 0l.1-.1c.3-.3.3-.9 0-1.3-1.2-1.2-1.8-2.8-1.8-4.6 0-1.7.6-3.3 1.8-4.5.3-.3.3-.9 0-1.3z"/><circle class="st30" cx="179.8" cy="26.7" r="2.3"/></svg>