<svg id="Layer_3" xmlns="http://www.w3.org/2000/svg" xmlns:xlink="http://www.w3.org/1999/xlink" viewBox="0 0 728 171.2"><style>.st0{opacity:.3}.st4{stroke-width:3;stroke-dasharray:0,7}.st10,.st4,.st7{fill:none;stroke:#0073ae;stroke-linecap:round;stroke-linejoin:round}.st7{stroke-width:3;stroke-dasharray:0,6.6667}.st10{stroke-dasharray:0,7.2}.st10,.st11,.st12{stroke-width:3}.st11{fill:none;stroke:#0073ae;stroke-linecap:round;stroke-linejoin:round;stroke-dasharray:0,6.8333}.st12{stroke-dasharray:0,7.6}.st12,.st13,.st16{fill:none;stroke:#0073ae;stroke-linecap:round;stroke-linejoin:round}.st13{stroke-dasharray:0,7.5;stroke-width:3}.st16{opacity:.2;stroke-width:2;stroke-miterlimit:10}.st18{fill:#ffdbb2}.st20{fill:#0073ae}.st26{stroke-linecap:round;stroke-linejoin:round}.st26,.st28,.st30{fill:none;stroke:#0073ae;stroke-miterlimit:10;stroke-width:2}.st28{stroke-linejoin:round}.st30{fill-rule:evenodd;clip-rule:evenodd}</style><g class="st0" fill="none" stroke="#0073ae" stroke-width="3" stroke-linecap="round" stroke-linejoin="round"><path stroke-dasharray="0,8" d="M229.5 42.7v4"/><path stroke-dasharray="0,6.75" d="M236.3 50.7h16.8"/></g><g class="st0"><path class="st4" d="M61.5 61.7H163"/><path fill="none" stroke="#0073ae" stroke-width="3" stroke-linecap="round" stroke-linejoin="round" stroke-dasharray="0,8.5" d="M166.5 70.2v4.2"/><path fill="none" stroke="#0073ae" stroke-width="3" stroke-linecap="round" stroke-linejoin="round" stroke-dasharray="0,6.7692" d="M173.3 78.7h77.8"/></g><g class="st0"><path class="st7" d="M98.2 115.7h10"/><path fill="none" stroke="#0073ae" stroke-width="3" stroke-linecap="round" stroke-linejoin="round" stroke-dasharray="0,6.25" d="M111.5 109.4V93.8"/><path fill="none" stroke="#0073ae" stroke-width="3" stroke-linecap="round" stroke-linejoin="round" stroke-dasharray="0,7.15" d="M118.6 90.7h132.3"/></g><g class="st0"><path class="st7" d="M180.2 144.7h30"/><path class="st10" d="M213.5 137.5v-25.2"/><path class="st11" d="M220.3 108.7h30.8"/></g><g class="st0"><path class="st12" d="M542.9 24.7h-26.6"/><path class="st10" d="M512.5 31.9v25.2"/><path class="st11" d="M505.7 60.7h-30.8"/></g><g class="st0"><path class="st13" d="M619 52.7h-3.7"/><path class="st4" d="M611.5 59.7v17.5m-7 3.5H475"/></g><g class="st0"><path class="st11" d="M665.7 106.7H552.9"/><path class="st13" d="M549.5 99.2v-3.8"/><path fill="none" stroke="#0073ae" stroke-width="3" stroke-linecap="round" stroke-linejoin="round" stroke-dasharray="0,7.0909" d="M542.4 91.7H475"/></g><g class="st0"><path class="st4" d="M547.5 145.7H509"/><path class="st12" d="M505.5 138.1v-26.6"/><path fill="none" stroke="#0073ae" stroke-width="3" stroke-linecap="round" stroke-linejoin="round" stroke-dasharray="0,6.8" d="M498.7 107.7h-23.8"/></g><circle class="st16" cx="580.5" cy="25.7" r="24.5"/><circle class="st16" cx="193.5" cy="34.7" r="24.5"/><circle class="st16" cx="25.5" cy="61.7" r="24.5"/><circle class="st16" cx="63.5" cy="115.7" r="24.5"/><circle class="st16" cx="142.5" cy="145.7" r="24.5"/><circle class="st16" cx="656.5" cy="52.7" r="24.5"/><circle class="st16" cx="702.5" cy="106.7" r="24.5"/><circle class="st16" cx="583.5" cy="145.7" r="24.5"/><path d="M457 161.7c0 3.3-2.7 6.1-6.1 6.1H278.1c-3.3 0-6.1-2.7-6.1-6.1V32.2c0-3.3 2.7-6.1 6.1-6.1H451c3.3 0 6.1 2.7 6.1 6.1v129.5" fill="#fff" stroke="#0073ae" stroke-width="2" stroke-miterlimit="10"/><path class="st18" d="M450 149.2H279V33.4h171v115.8"/><path d="M450 36.2H279v-2.8h171v2.8m-21 113H300v-5.8c0-.6.5-1.2 1.2-1.2h126.7c.6 0 1.2.5 1.2 1.2v5.8" opacity=".5" fill="#f80"/><circle class="st20" cx="364.5" cy="29.9" r="1.5"/><path d="M388.9 156.2c-1.2 2.9-4.1 5-7.4 5h-35c-3.3 0-6.2-2.1-7.4-5H247v3.7c0 4.6 3.7 8.3 8.3 8.3h217.4c4.6 0 8.3-3.7 8.3-8.3v-3.7h-92.1z" fill="#b2d5e6" stroke="#0073ae" stroke-width="2" stroke-linecap="round" stroke-linejoin="round" stroke-miterlimit="10"/><path fill="none" stroke="#ffdbb2" stroke-width="2" stroke-miterlimit="10" d="M420 140.2v9"/><path d="M390.4 129.2h-52.8c-.9 0-1.6-.7-1.6-1.6V53.8c0-.9.7-1.6 1.6-1.6h52.8c.9 0 1.6.7 1.6 1.6v73.8c0 .9-.7 1.6-1.6 1.6z" fill="#fff"/><circle class="st18" cx="364" cy="85.2" r="18"/><defs><circle id="SVGID_1_" cx="364" cy="85.2" r="18"/></defs><clipPath id="SVGID_2_"><use xlink:href="#SVGID_1_" overflow="visible"/></clipPath><g clip-path="url(#SVGID_2_)"><path d="M377.6 98.6l-1.3-4.7c-.1-.5-.6-1.1-1.1-1.3l-7.5-3.3V88c1.1-1.4 1.8-3.4 1.8-5.7v-1.8c0-3.2-2.5-5.8-5.5-5.8-3.1 0-5.5 2.6-5.5 5.8v1.8c0 2.3.7 4.3 1.8 5.7v1.4l-7.5 3.3c-.5.2-.9.8-1.1 1.3l-1.3 4.7c-.1.5.2.9.7.9l12.9 6.6 12.9-6.6c.5-.1.8-.5.7-1z" fill="#fff" stroke="#0073ae" stroke-width="2" stroke-linecap="round" stroke-linejoin="round" stroke-miterlimit="10"/></g><circle class="st26" cx="364" cy="85.2" r="18"/><path class="st18" d="M358.5 124.2h-12c-1.9 0-3.5-1.6-3.5-3.5s1.6-3.5 3.5-3.5h12c1.9 0 3.5 1.6 3.5 3.5s-1.6 3.5-3.5 3.5z"/><path d="M381.5 124.2h-12c-1.9 0-3.5-1.6-3.5-3.5s1.6-3.5 3.5-3.5h12c1.9 0 3.5 1.6 3.5 3.5s-1.6 3.5-3.5 3.5z" fill="#b2d5e6"/><path class="st26" d="M690.2 113.3l11.1-9.6c-.7-3 .2-6.2 2.7-8.4 2.8-2.4 6.7-2.7 9.8-1l-6.1 5.5 3.7 4.3 6-5.5c1.3 3.3.5 7.1-2.3 9.5-2.5 2.2-5.8 2.7-8.7 1.5l-11.1 9.6c-1.7 1.4-4.2 1.3-5.6-.3-1.3-1.7-1.1-4.2.5-5.6zM571 144.2v-1c0-6.6 5.4-12 12-12h1c6.6 0 12 5.4 12 12v1m0 10c-1.7 0-3-1.4-3-3v-4c0-1.7 1.3-3 3-3s3 1.3 3 3v4c0 1.6-1.3 3-3 3zm-25 0c-1.7 0-3-1.4-3-3v-4c0-1.7 1.3-3 3-3s3 1.3 3 3v4c0 1.6-1.3 3-3 3zm25 0s0 7-13 7"/><path class="st20" d="M583.5 157.2c.8 0 1.5.7 1.5 1.5s-.7 1.5-1.5 1.5-1.5-.7-1.5-1.5.7-1.5 1.5-1.5m0-1.8c-1.8 0-3.3 1.5-3.3 3.3s1.5 3.3 3.3 3.3 3.3-1.5 3.3-3.3-1.5-3.3-3.3-3.3z"/><path class="st26" d="M573 137.2l.8.7c.6.6 1.6.5 2.1-.2 1.8-2.2 4.3-3.6 7.2-3.6h.8c2.8 0 5.3 1.3 7.1 3.4.6.7 1.6.6 2.2-.1l.8-1m62.9-96.7c-5.3 0-9.6 4.2-9.6 9.3 0 6.3 4.6 6.9 5.2 10.4 0 1 .8 1.8 1.7 1.8h5.2c1 0 1.7-.8 1.7-1.8.6-3.6 5.2-4 5.2-10.4.2-5.1-4.1-9.3-9.4-9.3zM654 64.2h6"/><path class="st28" d="M657 52.2v9"/><path class="st26" d="M654 67.2h6m-4 2h2"/><path class="st20" d="M657 47.2c1.1 0 2 .9 2 2s-.9 2-2 2-2-.9-2-2 .9-2 2-2m0-2c-2.2 0-4 1.8-4 4s1.8 4 4 4 4-1.8 4-4-1.8-4-4-4z"/><path class="st26" d="M581 11.2c8.3 0 15 6.7 15 15s-6.7 15-15 15-15-6.7-15-15c0-2.7.7-5.2 1.9-7.4"/><path class="st28" d="M564.3 18l5-1.1 1.1 5"/><path class="st20" d="M580.5 25.2c.8 0 1.5.7 1.5 1.5s-.7 1.5-1.5 1.5-1.5-.7-1.5-1.5.7-1.5 1.5-1.5m0-1.8c-1.8 0-3.3 1.5-3.3 3.3s1.5 3.3 3.3 3.3 3.3-1.5 3.3-3.3-1.5-3.3-3.3-3.3z"/><path d="M582 25.2l6-6m-6 9l4 4" stroke-linecap="round" stroke-linejoin="round" stroke-width="1.75" fill="none" stroke="#0073ae" stroke-miterlimit="10"/><path class="st30" d="M65.9 121.3c.6.3 1.3.4 1.8-.2.5-.5 2.1-2.5 2.1-2.5s.5-.6 1.3-.1 2.2 1.5 5.1 3.4c.5.4.3 1 .3 1s-2.1 3.4-5.3 5c-.7.5-2.4 0-2.4 0s-13.6-3.1-18.3-17.1c-.3-.6 0-1.8 0-1.8s.4-2.5 4.1-5.7c.6-.5 1.3 0 1.3 0s1.8 1.9 4.1 5.1c.3.3.1.9-.1 1.1-1.6 1.3-2.5 2.9-2.5 2.9s-.2.6.2 1.1c.3.5 3.2 5.2 8.3 7.8zm68.4 38.9h-3.5c-1.5 0-2.8-1.2-2.8-2.8v-23.5c0-1.5 1.2-2.8 2.8-2.8h3.5c1.5 0 2.8 1.2 2.8 2.8v23.5c-.1 1.5-1.3 2.8-2.8 2.8z"/><path class="st30" d="M152.3 158.2H137v-25h15.3c2 0 3.7 1.7 3.7 3.7v17.6c0 2-1.7 3.7-3.7 3.7z"/><path class="st30" d="M150.8 143.2h-8.6c-.7 0-1.2-.5-1.2-1.2v-4.6c0-.7.5-1.2 1.2-1.2h8.6c.7 0 1.2.5 1.2 1.2v4.6c0 .6-.5 1.2-1.2 1.2z"/><path class="st26" d="M141 147.2h1m4 0h1m4 0h1m-11 3h1m4 0h1m4 0h1m-11 3h1m4 0h1m4 0h1m-121.3-77H20.3c-1.8 0-3.3-1.5-3.3-3.3V50.5c0-1.8 1.5-3.3 3.3-3.3h10.3c1.8 0 3.3 1.5 3.3 3.3v22.3c.1 1.9-1.4 3.4-3.2 3.4zm-6.7-25h3m-2 21h1m-8-4h15m173.4-22h-25.7c-1.5 0-2.6-1.2-2.6-2.6V24.8c0-1.5 1.2-2.6 2.6-2.6h25.7c1.5 0 2.6 1.2 2.6 2.6v18.7c0 1.5-1.2 2.7-2.6 2.7zm-16.9 4h8m-18.5-9h29"/></svg>