<?xml version="1.0" encoding="utf-8"?>
<!-- Generator: Adobe Illustrator 22.0.1, SVG Export Plug-In . SVG Version: 6.00 Build 0)  -->
<svg version="1.1" id="Слой_1" xmlns="http://www.w3.org/2000/svg" xmlns:xlink="http://www.w3.org/1999/xlink" x="0px" y="0px"
	 viewBox="0 0 367.5 57.1" style="enable-background:new 0 0 367.5 57.1;" xml:space="preserve" onclick="firstSvg.reset().play();">
<style type="text/css">
	.st0{fill:none;stroke:#FFFFFF;stroke-miterlimit:10;}
</style>
<g>
	<path class="st0" d="M8.3,56.8c-1,0-1.8-0.5-2.6-1.5c-0.7-1-1.4-2.2-1.9-3.8c-0.5-1.6-1-3.3-1.4-5.3c-0.4-2-0.7-4-0.9-6.1
		s-0.4-4-0.5-6C1,32.2,0.9,30.5,0.9,29c0-2.3,0.2-4.8,0.6-7.2c0.3-2.5,0.7-4.8,1.1-7c0.4-2.2,0.8-4.1,1.2-5.8S4.5,6,4.7,5.3
		C5,4.2,5.4,3.4,5.8,3s1.3-0.7,2.6-0.7h1.4c0.4,0,0.8,0.1,1.2,0.1c0.4,0,0.7,0.1,1.1,0.3c-1.4,2.8-2.5,5.7-3.4,8.6
		c-0.9,2.9-1.5,5.8-2,8.7c-0.5,2.9-0.8,5.7-0.9,8.5c-0.1,2.8-0.1,5.5-0.1,8.1c0.1,2.1,0.2,4,0.4,5.8c0.2,1.8,0.4,3.6,0.8,5.4
		c0.4,1.8,0.8,2.8,1.2,3.1c0.5,0.3,1,0.1,1.5-0.6c0.5-0.6,1-1.6,1.5-2.8c0.5-1.2,0.9-2.5,1.3-3.7c0.2-0.8,0.6-2,1.1-3.5
		c0.5-1.5,1-3.3,1.6-5.1s1.2-3.8,1.8-5.9c0.6-2,1.2-3.9,1.8-5.7c0.5-1.7,1-3.3,1.4-4.5s0.7-2.1,0.8-2.6c0.2-0.6,0.6-1.5,1-2.6
		s0.9-2.3,1.3-3.5c0.5-1.2,1-2.5,1.5-3.7s1-2.3,1.5-3.3c0.5-0.9,1-1.4,1.6-1.6C28.4,1.6,29,1.7,29.5,2c0.6,0.3,1.1,0.8,1.6,1.5
		c0.5,0.7,0.9,1.3,1.3,2.1c-0.5,0.2-1,0.7-1.6,1.4s-1,1.6-1.4,2.4c-0.5,1-1,2.1-1.5,3.3c-0.3,0.9-0.7,2-1.2,3.4
		c-0.5,1.4-1,2.9-1.6,4.6c-0.6,1.7-1.2,3.4-1.8,5.2c-0.6,1.8-1.2,3.5-1.7,5.1c-0.5,1.6-1,3-1.5,4.3c-0.4,1.3-0.8,2.2-1.1,2.8
		c-0.4,0.9-0.8,2-1.3,3.3c-0.5,1.2-1,2.5-1.6,3.8c-0.6,1.3-1.1,2.6-1.7,3.8c-0.6,1.3-1.2,2.4-1.8,3.4c-0.8,1.5-1.5,2.6-2.1,3.3
		C9.9,56.5,9.2,56.8,8.3,56.8z"/>
	<path class="st0" d="M27.6,44.5c1.7-7.2,3.1-13,4.1-17.4c1-4.4,1.8-7.7,2.4-10c0.6-2.7,1.1-4.6,1.3-5.7c0.1-0.7,0.2-1.5,0.3-2.2
		c0.1-0.6,0.1-1.3,0.1-1.9c0-0.7-0.1-1.3-0.2-1.8c0.3-0.2,0.7-0.4,1-0.5c0.4-0.1,0.7-0.2,1.1-0.3c0.4-0.1,0.9-0.2,1.3-0.3
		c0.4-0.1,0.8-0.1,1.2-0.1c0.3,0,0.6,0,0.9,0.1c0.3,0.1,0.4,0.2,0.5,0.4c0.2,0.2,0.3,0.6,0.3,1.2c0,0.6-0.1,1.2-0.1,1.8
		c-0.2,0.7-0.3,1.5-0.5,2.4c-0.5,1.7-1.1,4.1-1.9,7.3c-0.7,2.7-1.7,6.4-2.8,11C35.3,33.1,33.8,38.9,32,46c-0.2,0.2-0.4,0.3-0.7,0.4
		c-0.3,0.1-0.5,0.1-0.8,0.1c-0.3,0-0.6,0-0.9-0.1c-0.3-0.1-0.5-0.2-0.8-0.4c-0.2-0.2-0.5-0.4-0.7-0.6S27.7,44.9,27.6,44.5z"/>
	<path class="st0" d="M71.6,33.8c-0.5,0.8-1.3,1.7-2.1,2.9c-0.9,1.2-1.7,2.3-2.7,3.5c-0.9,1.2-1.8,2.2-2.7,3.2c-0.9,1-1.6,1.6-2.2,2
		c-0.4,0.2-0.8,0.4-1.3,0.6c-0.5,0.2-1,0.3-1.6,0.3c-0.5,0-1,0-1.5-0.1c-0.5-0.1-0.9-0.3-1.2-0.5c-0.4-0.3-0.6-0.7-0.9-1.2
		c-0.2-0.4-0.4-1-0.6-1.7s-0.2-1.6-0.2-2.6c-0.9,1.6-2,2.8-3.1,3.6c-1.1,0.8-2.2,1.5-3.2,1.8c-1.2,0.4-2.3,0.7-3.5,0.8
		c-0.5,0-1.1-0.2-1.8-0.6c-0.6-0.4-1.2-1-1.6-1.8c-0.4-0.8-0.7-1.8-0.8-3.1c-0.1-1.3,0-2.8,0.5-4.5c0.5-2.4,1.4-4.6,2.6-6.5
		c1.2-2,2.5-3.6,3.9-5c1.4-1.4,2.8-2.4,4.2-3.1c1.4-0.7,2.5-1,3.4-0.9c1.1,0.2,1.9,0.5,2.6,0.9c0.5,0.4,0.9,1,1.1,1.7s-0.1,1.8-1,3
		c0.5-0.1,1-0.2,1.4-0.2c0.4,0,0.7-0.1,0.8-0.1c0.2,0,0.4,0,0.5,0.1c0,0.1,0.1,0.2,0.1,0.5c0,0.3-0.1,0.7-0.2,1.4
		c-0.1,0.7-0.3,1.6-0.5,2.7c-0.2,1.1-0.5,2.6-0.9,4.4c-0.1,0.4-0.1,0.7-0.2,1s-0.1,0.6-0.2,0.9s-0.1,0.6-0.2,1
		c-0.1,0.4-0.2,0.9-0.3,1.5c0,0.4,0,0.7,0,1.1c0,0.4,0.1,0.8,0.2,1.1s0.3,0.6,0.6,0.8c0.3,0.2,0.6,0.3,1.1,0.3
		c0.4,0,0.9-0.2,1.5-0.7c0.6-0.5,1.3-1.1,2-1.9c0.7-0.8,1.4-1.6,2.2-2.5c0.8-0.9,1.5-1.8,2.1-2.7c0.7-0.9,1.3-1.6,1.8-2.3
		c0.5-0.7,0.9-1.2,1.1-1.5c0.3-0.4,0.6-0.6,0.9-0.6c0.3-0.1,0.5,0,0.7,0.3c0.2,0.2,0.2,0.6,0.1,1.1C72.4,32.6,72.1,33.1,71.6,33.8z
		 M54.5,36.4c0.2-0.8,0.4-1.7,0.7-2.8c0.3-1.1,0.5-2.1,0.7-3c0.2-1,0.3-1.8,0.4-2.4c0.1-0.6,0.1-0.9-0.1-0.9c-0.2,0-0.4,0.1-0.6,0.2
		c-0.2,0.1-0.4,0.1-0.8,0.2c-0.3,0-0.6,0.1-0.9,0.2c0.3-0.6,0.5-1.1,0.6-1.6s0.1-0.7,0-1c0-0.3-0.1-0.5-0.2-0.6
		c-0.4-0.4-1.2-0.1-2.3,0.8c-1.1,0.9-2.3,2.6-3.7,5.1c-0.6,1-1.1,2.1-1.4,3.3c-0.4,1.2-0.6,2.2-0.7,3.3C46,38,46,38.9,46,39.7
		c0.1,0.8,0.2,1.3,0.5,1.5c0.4,0.4,0.9,0.6,1.5,0.6c0.5,0,1.1-0.2,1.7-0.5c0.6-0.3,1.1-0.7,1.7-1.1c0.6-0.5,1.1-1,1.5-1.5
		c0.4-0.5,0.8-1,1.1-1.4C54.3,36.9,54.4,36.5,54.5,36.4z"/>
	<path class="st0" d="M86.4,34.2c-0.2,1.2-0.4,2.4-0.6,3.5c-0.2,1.1-0.3,2-0.3,2.6c0,1,0.1,1.7,0.5,2.1c0.4,0.4,0.8,0.6,1.3,0.6
		c0.5,0,1.2-0.3,2-0.8c0.8-0.5,1.6-1.2,2.5-2.1c0.9-0.8,1.8-1.7,2.7-2.7c0.9-1,1.7-1.9,2.5-2.8s1.4-1.6,1.9-2.3
		c0.5-0.7,0.9-1.1,1.1-1.3c0.2-0.2,0.5-0.4,0.7-0.4c0.3,0,0.5,0,0.6,0.1c0.2,0.1,0.2,0.3,0.2,0.6c0,0.3-0.2,0.7-0.5,1.2
		c-0.5,0.7-1.1,1.6-1.8,2.6c-0.7,1-1.6,2-2.5,3.1c-0.9,1.1-1.8,2.1-2.8,3.1c-1,1-2,1.9-3,2.7c-1,0.8-2,1.4-2.9,1.9
		c-0.9,0.5-1.7,0.7-2.5,0.7c-0.5,0-1.1-0.2-1.6-0.5c-0.5-0.3-0.9-0.7-1.3-1.2c-0.4-0.5-0.7-1.1-0.9-1.7c-0.2-0.6-0.3-1.2-0.3-1.9
		c0-0.3,0.1-0.7,0.2-1.4c-1.6,1.8-3.3,3.3-5,4.4c-1.7,1.1-3.3,1.6-4.8,1.6c-0.5,0-1.1-0.1-1.8-0.4c-0.6-0.3-1.2-0.7-1.7-1.3
		c-0.5-0.6-0.9-1.4-1.2-2.5c-0.3-1-0.4-2.2-0.4-3.7c0.1-2.3,0.6-4.4,1.3-6.4c0.8-2,1.8-3.8,3-5.3c1.2-1.5,2.5-2.7,4-3.6
		c1.5-0.9,3-1.3,4.5-1.3c0.7,0,1.3,0.2,1.8,0.5c0.5,0.3,1,0.8,1.4,1.3c0.4,0.5,0.7,1.1,1,1.7c0.3,0.6,0.4,1.2,0.6,1.8
		c0.3-1.1,0.5-2.2,0.8-3.3c0.2-1.1,0.5-2.1,0.7-3.1c0.4-1.4,0.8-3,1.2-4.7c0.4-1.4,0.8-3.1,1.3-5c0.5-1.9,1.1-3.8,1.7-5.9
		c0.4-0.3,0.8-0.5,1.1-0.7c0.4-0.2,0.7-0.3,1-0.4c0.4-0.1,0.7-0.2,1-0.2c0.4,0,0.7,0,1.1,0.1C95,3.8,95.2,4,95.5,4.4
		c0.2,0.4,0.4,1,0.4,1.8c0.1,0.8,0.1,1.9,0,3.3c-0.1,1.7-0.4,3.6-0.9,5.6c-0.5,2-1.2,4.1-2.1,6.3c-0.9,2.2-1.8,4.3-3,6.5
		S87.6,32.3,86.4,34.2z M82.9,35c0.2-0.7,0.3-1.5,0.4-2.2c0.1-0.7,0.3-1.5,0.5-2.3c-0.1,0-0.1,0.1-0.2,0.1c-0.1,0-0.1,0.1-0.2,0.1
		c-0.4,0.2-0.7,0.2-0.9,0c-0.2-0.2-0.2-0.6-0.2-1c0-0.2,0-0.7-0.1-1.3c0-0.6-0.1-1.2-0.3-1.9s-0.4-1.2-0.8-1.7
		c-0.4-0.5-0.8-0.7-1.5-0.7c-0.9,0-1.8,0.5-2.8,1.4c-0.9,0.9-1.8,2-2.6,3.3c-0.8,1.3-1.5,2.7-2.1,4.2c-0.5,1.5-0.9,2.8-0.9,4
		c-0.1,1.9,0.2,3.2,0.7,4c0.5,0.8,1.3,1.2,2.2,1.2c0.7,0,1.5-0.3,2.3-0.8c0.8-0.5,1.7-1.2,2.5-2c0.8-0.8,1.5-1.6,2.2-2.4
		C81.9,36.2,82.5,35.6,82.9,35z"/>
	<path class="st0" d="M101.5,23.4c0.2-0.2,0.6-0.4,1.1-0.6c0.5-0.2,1.1-0.3,1.7-0.4c0.6-0.1,1.1-0.2,1.6-0.2c0.5,0,0.8,0,0.8,0
		c0,0-0.1,0.4-0.3,1.2c-0.2,0.8-0.5,1.7-0.9,2.8s-0.7,2.1-1.1,3.3c-0.4,1.1-0.7,2-0.9,2.7c-0.2,0.7-0.4,1.5-0.7,2.4
		c-0.3,0.9-0.5,1.7-0.7,2.6c-0.2,0.8-0.4,1.6-0.4,2.4c-0.1,0.7,0,1.3,0.2,1.7c0.2,0.5,0.4,0.8,0.6,1s0.5,0.3,0.8,0.3
		c0.8,0,1.8-0.4,3-1.3c1.2-0.9,2.4-1.9,3.6-3.1c1.2-1.2,2.4-2.4,3.4-3.6s1.8-2.2,2.3-3c0.3-0.4,0.6-0.6,1-0.8
		c0.3-0.1,0.6-0.1,0.8,0.1c0.2,0.2,0.3,0.4,0.4,0.8c0,0.4-0.1,0.8-0.4,1.2c-0.6,1.1-1.5,2.4-2.8,3.9c-1.2,1.5-2.5,2.9-3.9,4.3
		c-1.4,1.4-2.7,2.6-4,3.5c-1.3,1-2.4,1.5-3.2,1.5c-0.7,0-1.3-0.1-2-0.3c-0.6-0.3-1.2-0.6-1.8-1.1c-0.5-0.4-1-1-1.3-1.6
		c-0.4-0.6-0.5-1.2-0.6-1.9c-0.1-1-0.1-2.3,0-4s0.3-3.4,0.6-5.2c0.3-1.8,0.7-3.5,1.2-5.1C100.3,25.4,100.9,24.2,101.5,23.4z
		 M109.6,10.9c-0.1,0.4-0.3,0.8-0.7,1.3c-0.3,0.4-0.7,0.7-1.1,1c-0.4,0.3-0.8,0.4-1.3,0.5c-0.4,0.1-0.8,0-1.1-0.2
		c-0.8-0.6-1.3-1.3-1.3-2c0-0.7,0.1-1.4,0.5-2.1c0.4-0.6,0.9-1.2,1.5-1.6c0.6-0.4,1.1-0.7,1.5-0.8c0.4-0.1,0.8,0,1.1,0.3
		c0.3,0.3,0.5,0.6,0.7,1c0.2,0.4,0.2,0.9,0.3,1.4C109.8,10.1,109.7,10.5,109.6,10.9z"/>
	<path class="st0" d="M121.4,43.4c0.2,0.2,0.5,0.2,0.9,0.2c0.4,0,0.7-0.1,1.1-0.2c0.4-0.2,0.7-0.4,1.1-0.6c0.3-0.3,0.6-0.6,0.7-1.1
		c0.2-0.4,0.2-1,0-1.8c-0.2-0.8-0.4-1.7-0.7-2.6c-0.3-0.9-0.7-1.8-1.1-2.8c-0.4-0.9-0.7-1.8-1-2.6c-0.2-0.6-0.4-1.1-0.6-1.6
		c-0.2-0.4-0.3-0.8-0.4-1.3c-0.1-0.4-0.2-0.7-0.3-0.8c-0.2,0.3-0.5,0.8-1,1.5c-0.5,0.7-1,1.4-1.6,2.2c-0.6,0.8-1.1,1.5-1.6,2.1
		c-0.5,0.6-0.9,1.1-1.1,1.3c-0.3,0.4-0.6,0.6-0.9,0.6s-0.5,0-0.7-0.2c-0.2-0.2-0.3-0.4-0.3-0.8c0-0.3,0.1-0.7,0.4-1.2
		c0.2-0.3,0.6-0.8,1.1-1.5c0.5-0.7,0.9-1.4,1.4-2.1c0.5-0.7,0.9-1.4,1.3-1.9c0.4-0.6,0.6-0.9,0.6-1c0.1-0.3,0-0.7-0.3-1.2
		c-0.3-0.5-0.3-1.1-0.1-1.8c0.2-0.5,0.5-1.2,1.1-1.9c0.5-0.7,1.2-1.4,1.9-2c0.7-0.6,1.5-1,2.3-1.3c0.8-0.3,1.5-0.3,2.1,0
		c0.5,0.3,0.9,0.7,1.2,1c0.3,0.4,0.4,0.8,0.4,1.1c-0.1,0.2-0.2,0.4-0.4,0.8c-0.2,0.3-0.4,0.7-0.7,1.1c-0.3,0.4-0.8,1-1.3,1.7
		c0.1,0.9,0.3,1.7,0.5,2.5c0.2,0.7,0.4,1.4,0.6,1.9c0.2,0.7,0.5,1.3,0.8,1.8c0.4,0.7,0.7,1.4,1.1,2.2c0.4,0.7,0.7,1.5,1.1,2.2
		c0.3,0.7,0.6,1.4,0.8,2c0.2,0.6,0.3,1.2,0.2,1.6c-0.1,0.7-0.5,1.5-1,2.4c-0.6,0.9-1.3,1.8-2.1,2.7c-0.8,0.9-1.8,1.6-2.9,2.3
		c-1.1,0.6-2.2,0.9-3.4,0.9c-0.8,0-1.6-0.3-2.4-0.8c-0.8-0.5-1.4-1.1-1.9-1.8s-0.9-1.4-1.2-2c-0.3-0.7-0.3-1.2-0.1-1.5
		c0.2-0.5,0.4-0.8,0.6-1.1c0.2-0.3,0.5-0.6,0.9-0.9c0.2-0.1,0.4-0.3,0.6-0.4c0.2-0.1,0.5-0.2,0.8-0.4s0.8-0.3,1.2-0.4
		c0.4,1.2,0.7,2.2,1.1,2.8c0.3,0.7,0.6,1.2,0.8,1.6C121,43,121.3,43.3,121.4,43.4z"/>
	<path class="st0" d="M133.4,44.5c1.7-7.2,3.1-13,4.1-17.4c1-4.4,1.8-7.7,2.4-10c0.6-2.7,1.1-4.6,1.3-5.7c0.1-0.7,0.2-1.5,0.3-2.2
		c0.1-0.6,0.1-1.3,0.1-1.9c0-0.7-0.1-1.3-0.2-1.8c0.3-0.2,0.7-0.4,1-0.5c0.4-0.1,0.7-0.2,1.1-0.3c0.4-0.1,0.9-0.2,1.3-0.3
		c0.4-0.1,0.8-0.1,1.2-0.1c0.3,0,0.6,0,0.9,0.1c0.3,0.1,0.4,0.2,0.5,0.4c0.2,0.2,0.3,0.6,0.3,1.2c0,0.6-0.1,1.2-0.1,1.8
		c-0.2,0.7-0.3,1.5-0.5,2.4c-0.5,1.7-1.1,4.1-1.9,7.3c-0.7,2.7-1.7,6.4-2.8,11c-1.2,4.6-2.7,10.5-4.5,17.6c-0.2,0.2-0.4,0.3-0.7,0.4
		c-0.3,0.1-0.5,0.1-0.8,0.1c-0.3,0-0.6,0-0.9-0.1c-0.3-0.1-0.5-0.2-0.8-0.4c-0.2-0.2-0.5-0.4-0.7-0.6S133.5,44.9,133.4,44.5z"/>
	<path class="st0" d="M177.5,33.8c-0.5,0.8-1.3,1.7-2.1,2.9c-0.9,1.2-1.7,2.3-2.7,3.5c-0.9,1.2-1.8,2.2-2.7,3.2
		c-0.9,1-1.6,1.6-2.2,2c-0.4,0.2-0.8,0.4-1.3,0.6c-0.5,0.2-1,0.3-1.6,0.3c-0.5,0-1,0-1.5-0.1c-0.5-0.1-0.9-0.3-1.2-0.5
		c-0.4-0.3-0.6-0.7-0.9-1.2c-0.2-0.4-0.4-1-0.6-1.7s-0.2-1.6-0.2-2.6c-0.9,1.6-2,2.8-3.1,3.6c-1.1,0.8-2.2,1.5-3.2,1.8
		c-1.2,0.4-2.3,0.7-3.5,0.8c-0.5,0-1.1-0.2-1.8-0.6c-0.6-0.4-1.2-1-1.6-1.8c-0.4-0.8-0.7-1.8-0.8-3.1c-0.1-1.3,0-2.8,0.5-4.5
		c0.5-2.4,1.4-4.6,2.6-6.5c1.2-2,2.5-3.6,3.9-5c1.4-1.4,2.8-2.4,4.2-3.1c1.4-0.7,2.5-1,3.4-0.9c1.1,0.2,1.9,0.5,2.6,0.9
		c0.5,0.4,0.9,1,1.1,1.7s-0.1,1.8-1,3c0.5-0.1,1-0.2,1.4-0.2c0.4,0,0.7-0.1,0.8-0.1c0.2,0,0.4,0,0.5,0.1c0,0.1,0.1,0.2,0.1,0.5
		c0,0.3-0.1,0.7-0.2,1.4c-0.1,0.7-0.3,1.6-0.5,2.7c-0.2,1.1-0.5,2.6-0.9,4.4c-0.1,0.4-0.1,0.7-0.2,1s-0.1,0.6-0.2,0.9
		s-0.1,0.6-0.2,1c-0.1,0.4-0.2,0.9-0.3,1.5c0,0.4,0,0.7,0,1.1c0,0.4,0.1,0.8,0.2,1.1s0.3,0.6,0.6,0.8c0.3,0.2,0.6,0.3,1.1,0.3
		c0.4,0,0.9-0.2,1.5-0.7c0.6-0.5,1.3-1.1,2-1.9s1.4-1.6,2.2-2.5c0.8-0.9,1.5-1.8,2.1-2.7c0.7-0.9,1.3-1.6,1.8-2.3
		c0.5-0.7,0.9-1.2,1.1-1.5c0.3-0.4,0.6-0.6,0.9-0.6c0.3-0.1,0.5,0,0.7,0.3c0.2,0.2,0.2,0.6,0.1,1.1
		C178.2,32.6,177.9,33.1,177.5,33.8z M160.3,36.4c0.2-0.8,0.4-1.7,0.7-2.8c0.3-1.1,0.5-2.1,0.7-3c0.2-1,0.3-1.8,0.4-2.4
		c0.1-0.6,0.1-0.9-0.1-0.9c-0.2,0-0.4,0.1-0.6,0.2c-0.2,0.1-0.4,0.1-0.8,0.2c-0.3,0-0.6,0.1-0.9,0.2c0.3-0.6,0.5-1.1,0.6-1.6
		s0.1-0.7,0-1c0-0.3-0.1-0.5-0.2-0.6c-0.4-0.4-1.2-0.1-2.3,0.8c-1.1,0.9-2.3,2.6-3.7,5.1c-0.6,1-1.1,2.1-1.4,3.3
		c-0.4,1.2-0.6,2.2-0.7,3.3c-0.1,1-0.2,1.9-0.1,2.7c0.1,0.8,0.2,1.3,0.5,1.5c0.4,0.4,0.9,0.6,1.5,0.6c0.5,0,1.1-0.2,1.7-0.5
		c0.6-0.3,1.1-0.7,1.7-1.1c0.6-0.5,1.1-1,1.5-1.5c0.4-0.5,0.8-1,1.1-1.4C160.1,36.9,160.3,36.5,160.3,36.4z"/>
	<path class="st0" d="M190.7,35c-1,1.5-2.1,2.9-3.1,4.3c-1.1,1.4-2.1,2.7-3.1,3.8s-1.9,2-2.8,2.7c-0.8,0.7-1.5,1-2,1
		c-1.2,0-2.2-0.6-3-1.7s-1.3-2.6-1.8-4.3s-0.7-3.5-0.8-5.4c-0.1-1.9-0.1-3.7,0-5.2c0.2-1.5,0.3-2.7,0.5-3.7c0.2-0.9,0.4-1.6,0.7-2.1
		c0.3-0.5,0.6-0.9,1.1-1.1s0.9-0.4,1.6-0.6c0.3-0.1,0.6-0.1,0.9-0.2c0.4,0,0.7,0,1,0s0.5,0.2,0.7,0.4c0.2,0.2,0.2,0.5,0.1,0.9
		c-0.1,0.4-0.2,0.9-0.4,1.6c-0.2,0.7-0.4,1.5-0.6,2.3c-0.2,0.9-0.4,1.8-0.6,2.7s-0.3,1.8-0.4,2.7c-0.1,1.5-0.1,2.8,0,3.9
		s0.3,2.1,0.5,2.8s0.5,1.3,0.8,1.7c0.3,0.4,0.5,0.6,0.6,0.6c0.2,0,0.6-0.3,1.1-0.8s1.1-1.2,1.8-2.1c0.7-0.9,1.4-1.9,2.2-3
		c0.8-1.1,1.5-2.3,2.1-3.5c-0.2-0.6-0.3-1.4-0.3-2.2c0.1-1.3,0.4-2.5,0.9-3.6c0.5-1.1,1-2,1.6-2.7c0.6-0.7,1.2-1.3,1.9-1.7
		s1.2-0.6,1.7-0.6c1,0,1.6,0.3,1.9,0.8c0.3,0.5,0.3,1.1,0.3,1.6c-0.1,0.8-0.4,1.9-1.1,3.4c-0.6,1.4-1.5,3-2.5,4.7
		c0.2,0.1,0.4,0.2,0.6,0.2c0.2,0.1,0.5,0.1,0.8,0.1c1.3,0,2.5-0.2,3.6-0.5c1.1-0.3,2-0.7,2.8-1.1c0.8-0.4,1.5-0.9,2.1-1.4
		c0.6-0.5,1-0.9,1.4-1.2c0.2-0.2,0.5-0.4,0.7-0.4s0.4,0.1,0.6,0.2c0.2,0.1,0.2,0.3,0.2,0.5s-0.1,0.5-0.4,0.8
		c-1.4,1.7-3.1,3.1-5.1,4.2c-2,1.1-4.4,1.6-7.1,1.6c-0.2,0-0.5,0-0.9-0.1C191.5,35.2,191.1,35.1,190.7,35z"/>
	<path class="st0" d="M216.3,53c-0.4-0.2-0.5-0.5-0.6-0.8c0-0.3,0-0.5,0.2-0.8c0.2-0.3,0.4-0.6,0.7-0.9c0.3-0.3,0.7-1,1.1-2.1
		c0.4-1.1,0.9-2.5,1.4-4c0.5-1.6,1-3.3,1.5-5.2c0.5-1.9,0.9-3.7,1.4-5.5c0.4-1.8,0.8-3.5,1.1-5c0.3-1.5,0.5-2.7,0.7-3.6
		c0.2-1.1,0.4-2.3,0.6-3.6c0.2-1.1,0.4-2.5,0.6-4c0.2-1.5,0.4-3.2,0.6-5l4.7-2.1c0.7-0.3,1.1-0.2,1.4,0.2c0.3,0.4,0.3,1.4,0,2.8
		c-0.1,0.7-0.3,1.8-0.6,3.4c-0.3,1.6-0.7,3.3-1.1,5.2c-0.4,1.9-0.8,3.8-1.3,5.8c-0.4,2-0.9,3.7-1.3,5.2c-0.4,1.4-0.8,3.1-1.3,5
		c-0.9,3.2-2.1,7.6-3.8,13.1c0.5,0.9,1.6,1.4,3,1.4c1.6,0,3.5-0.6,5.7-1.9c2.2-1.3,4.3-3.1,6.3-5.6c2-2.5,3.8-5.6,5.4-9.4
		c1.5-3.8,2.5-8.2,2.9-13.2c0.2-2.7,0.1-5.1-0.4-7.2c-0.5-2.1-1.2-3.8-2.1-5.2c-1-1.4-2.1-2.5-3.5-3.2c-1.4-0.7-2.9-1.1-4.6-1.1
		c-3.9,0-8,1.6-12.2,4.9l-0.3-4.9c1-1.1,2.2-2,3.5-2.6c1.3-0.6,2.5-1.1,3.7-1.4c1.3-0.4,2.7-0.5,4-0.6c2.5,0,4.9,0.5,7.2,1.4
		c2.3,1,4.3,2.4,6,4.4c1.7,2,3,4.4,3.9,7.4c0.9,2.9,1.2,6.4,0.9,10.3c-0.2,2.3-0.6,4.6-1.4,7.1c-0.8,2.4-1.8,4.8-3,7.2
		s-2.7,4.6-4.4,6.7c-1.7,2.1-3.5,4-5.5,5.5s-4.1,2.8-6.4,3.8c-2.3,0.9-4.6,1.4-7,1.4c-0.7,0-1.5-0.2-2.4-0.4c-0.7-0.2-1.6-0.5-2.5-1
		S217.3,53.9,216.3,53z"/>
	<path class="st0" d="M261.3,46.4c-1.5,0-2.7-0.2-3.6-0.7s-1.7-1-2.2-1.7c-0.5-0.7-0.9-1.4-1.1-2.2c-0.2-0.8-0.3-1.5-0.3-2.2
		c0-1.2,0.1-2.4,0.3-3.7c0.2-1.3,0.4-2.5,0.7-3.6c0.3-1.1,0.5-2.1,0.7-2.8c0.2-0.8,0.4-1.3,0.4-1.5c0.4-1.1,0.8-2.1,1.4-3
		c0.6-0.8,1.4-1.4,2.4-1.7c0.4-0.1,0.8-0.2,1.2-0.2c0.4,0,0.7-0.1,1.1-0.1c0.4,0,0.7,0.1,1,0.2c-1.1,2.7-1.9,4.9-2.5,6.7
		c-0.6,1.8-1.1,3.3-1.4,4.4c-0.4,1.3-0.6,2.3-0.6,3.1c-0.2,1.8,0,3.1,0.5,4c0.5,0.9,1.5,1.3,3.1,1.3c1,0,2-0.4,2.9-1.1
		s1.8-1.7,2.6-3c-0.1-0.6-0.2-1.3-0.2-1.9c0-1.2,0.1-2.5,0.3-3.7c0.2-1.2,0.5-2.3,0.8-3.3c0.3-1,0.6-2,0.9-2.8
		c0.3-0.8,0.6-1.5,0.8-1.9c0.4-0.9,0.8-1.5,1.2-1.7c0.4-0.2,0.9-0.3,1.7-0.4c0.3,0,0.6,0,0.8,0c0.2,0,0.4,0,0.6,0.1
		c0.5,0.1,0.7,0.4,0.7,0.7c0,0.6,0,1.6-0.1,2.8c-0.1,1.3-0.3,2.5-0.7,3.9c-0.3,1.1-0.5,2-0.8,2.8c-0.3,0.8-0.5,1.4-0.7,1.9
		s-0.5,1-0.7,1.3c-0.2,0.3-0.4,0.6-0.6,0.9c0.1,1.2,0.2,2.1,0.3,2.8s0.3,1.2,0.4,1.6c0.2,0.4,0.4,0.6,0.6,0.8
		c0.3,0.1,0.5,0.2,0.8,0.2c0.5,0,1.2-0.3,1.9-0.8c0.7-0.5,1.5-1.2,2.3-2c0.8-0.8,1.6-1.7,2.4-2.6c0.8-1,1.5-1.9,2.2-2.7
		c0.7-0.9,1.2-1.6,1.7-2.3s0.8-1,0.9-1.2c0.3-0.4,0.5-0.6,0.8-0.6c0.3-0.1,0.5,0,0.6,0.1c0.2,0.1,0.2,0.4,0.3,0.6
		c0,0.3-0.1,0.6-0.3,1c-0.8,1.5-1.7,3.1-2.9,4.7c-1.2,1.7-2.4,3.2-3.7,4.6c-1.3,1.4-2.6,2.6-4,3.5c-1.3,0.9-2.6,1.4-3.8,1.4
		c-1.1,0-1.9-0.4-2.5-1.1c-0.6-0.7-1.1-1.8-1.6-3.1c-0.9,1.4-2,2.5-3.2,3.3C264.1,46,262.7,46.4,261.3,46.4z"/>
	<path class="st0" d="M300.7,34.2c-0.2,1.2-0.4,2.4-0.6,3.5c-0.2,1.1-0.3,2-0.3,2.6c0,1,0.1,1.7,0.5,2.1c0.4,0.4,0.8,0.6,1.3,0.6
		c0.5,0,1.2-0.3,2-0.8c0.8-0.5,1.6-1.2,2.5-2.1c0.9-0.8,1.8-1.7,2.7-2.7c0.9-1,1.7-1.9,2.5-2.8s1.4-1.6,1.9-2.3
		c0.5-0.7,0.9-1.1,1.1-1.3c0.2-0.2,0.5-0.4,0.7-0.4c0.3,0,0.5,0,0.6,0.1c0.2,0.1,0.2,0.3,0.2,0.6c0,0.3-0.2,0.7-0.5,1.2
		c-0.5,0.7-1.1,1.6-1.8,2.6c-0.7,1-1.6,2-2.5,3.1c-0.9,1.1-1.8,2.1-2.8,3.1c-1,1-2,1.9-3,2.7c-1,0.8-2,1.4-2.9,1.9
		c-0.9,0.5-1.7,0.7-2.5,0.7c-0.5,0-1.1-0.2-1.6-0.5c-0.5-0.3-0.9-0.7-1.3-1.2c-0.4-0.5-0.7-1.1-0.9-1.7c-0.2-0.6-0.3-1.2-0.3-1.9
		c0-0.3,0.1-0.7,0.2-1.4c-1.6,1.8-3.3,3.3-5,4.4c-1.7,1.1-3.3,1.6-4.8,1.6c-0.5,0-1.1-0.1-1.8-0.4c-0.6-0.3-1.2-0.7-1.7-1.3
		c-0.5-0.6-0.9-1.4-1.2-2.5c-0.3-1-0.4-2.2-0.4-3.7c0.1-2.3,0.6-4.4,1.3-6.4c0.8-2,1.8-3.8,3-5.3c1.2-1.5,2.5-2.7,4-3.6
		c1.5-0.9,3-1.3,4.5-1.3c0.7,0,1.3,0.2,1.8,0.5c0.5,0.3,1,0.8,1.4,1.3c0.4,0.5,0.7,1.1,1,1.7c0.3,0.6,0.4,1.2,0.6,1.8
		c0.3-1.1,0.5-2.2,0.8-3.3c0.2-1.1,0.5-2.1,0.7-3.1c0.4-1.4,0.8-3,1.2-4.7c0.4-1.4,0.8-3.1,1.3-5c0.5-1.9,1.1-3.8,1.7-5.9
		c0.4-0.3,0.8-0.5,1.1-0.7c0.4-0.2,0.7-0.3,1-0.4c0.4-0.1,0.7-0.2,1-0.2c0.4,0,0.7,0,1.1,0.1c0.3,0.1,0.6,0.4,0.8,0.8
		c0.2,0.4,0.4,1,0.4,1.8c0.1,0.8,0.1,1.9,0,3.3c-0.1,1.7-0.4,3.6-0.9,5.6c-0.5,2-1.2,4.1-2.1,6.3c-0.9,2.2-1.8,4.3-3,6.5
		S302,32.3,300.7,34.2z M297.3,35c0.2-0.7,0.3-1.5,0.4-2.2c0.1-0.7,0.3-1.5,0.5-2.3c-0.1,0-0.1,0.1-0.2,0.1c-0.1,0-0.1,0.1-0.2,0.1
		c-0.4,0.2-0.7,0.2-0.9,0c-0.2-0.2-0.2-0.6-0.2-1c0-0.2,0-0.7-0.1-1.3c0-0.6-0.1-1.2-0.3-1.9s-0.4-1.2-0.8-1.7
		c-0.4-0.5-0.8-0.7-1.5-0.7c-0.9,0-1.8,0.5-2.8,1.4c-0.9,0.9-1.8,2-2.6,3.3c-0.8,1.3-1.5,2.7-2.1,4.2c-0.5,1.5-0.9,2.8-0.9,4
		c-0.1,1.9,0.2,3.2,0.7,4c0.5,0.8,1.3,1.2,2.2,1.2c0.7,0,1.5-0.3,2.3-0.8c0.8-0.5,1.7-1.2,2.5-2c0.8-0.8,1.5-1.6,2.2-2.4
		C296.3,36.2,296.9,35.6,297.3,35z"/>
	<path class="st0" d="M341.2,33.8c-0.5,0.8-1.3,1.7-2.1,2.9c-0.9,1.2-1.7,2.3-2.7,3.5c-0.9,1.2-1.8,2.2-2.7,3.2
		c-0.9,1-1.6,1.6-2.2,2c-0.4,0.2-0.8,0.4-1.3,0.6c-0.5,0.2-1,0.3-1.6,0.3c-0.5,0-1,0-1.5-0.1c-0.5-0.1-0.9-0.3-1.2-0.5
		c-0.4-0.3-0.6-0.7-0.9-1.2c-0.2-0.4-0.4-1-0.6-1.7s-0.2-1.6-0.2-2.6c-0.9,1.6-2,2.8-3.1,3.6c-1.1,0.8-2.2,1.5-3.2,1.8
		c-1.2,0.4-2.3,0.7-3.5,0.8c-0.5,0-1.1-0.2-1.8-0.6c-0.6-0.4-1.2-1-1.6-1.8c-0.4-0.8-0.7-1.8-0.8-3.1c-0.1-1.3,0-2.8,0.5-4.5
		c0.5-2.4,1.4-4.6,2.6-6.5c1.2-2,2.5-3.6,3.9-5c1.4-1.4,2.8-2.4,4.2-3.1c1.4-0.7,2.5-1,3.4-0.9c1.1,0.2,1.9,0.5,2.6,0.9
		c0.5,0.4,0.9,1,1.1,1.7s-0.1,1.8-1,3c0.5-0.1,1-0.2,1.4-0.2c0.4,0,0.7-0.1,0.8-0.1c0.2,0,0.4,0,0.5,0.1c0,0.1,0.1,0.2,0.1,0.5
		c0,0.3-0.1,0.7-0.2,1.4c-0.1,0.7-0.3,1.6-0.5,2.7c-0.2,1.1-0.5,2.6-0.9,4.4c-0.1,0.4-0.1,0.7-0.2,1s-0.1,0.6-0.2,0.9
		s-0.1,0.6-0.2,1c-0.1,0.4-0.2,0.9-0.3,1.5c0,0.4,0,0.7,0,1.1c0,0.4,0.1,0.8,0.2,1.1s0.3,0.6,0.6,0.8c0.3,0.2,0.6,0.3,1.1,0.3
		c0.4,0,0.9-0.2,1.5-0.7c0.6-0.5,1.3-1.1,2-1.9s1.4-1.6,2.2-2.5c0.8-0.9,1.5-1.8,2.1-2.7c0.7-0.9,1.3-1.6,1.8-2.3
		c0.5-0.7,0.9-1.2,1.1-1.5c0.3-0.4,0.6-0.6,0.9-0.6c0.3-0.1,0.5,0,0.7,0.3c0.2,0.2,0.2,0.6,0.1,1.1
		C341.9,32.6,341.6,33.1,341.2,33.8z M324,36.4c0.2-0.8,0.4-1.7,0.7-2.8c0.3-1.1,0.5-2.1,0.7-3c0.2-1,0.3-1.8,0.4-2.4
		c0.1-0.6,0.1-0.9-0.1-0.9c-0.2,0-0.4,0.1-0.6,0.2c-0.2,0.1-0.4,0.1-0.8,0.2c-0.3,0-0.6,0.1-0.9,0.2c0.3-0.6,0.5-1.1,0.6-1.6
		s0.1-0.7,0-1c0-0.3-0.1-0.5-0.2-0.6c-0.4-0.4-1.2-0.1-2.3,0.8c-1.1,0.9-2.3,2.6-3.7,5.1c-0.6,1-1.1,2.1-1.4,3.3
		c-0.4,1.2-0.6,2.2-0.7,3.3c-0.1,1-0.2,1.9-0.1,2.7c0.1,0.8,0.2,1.3,0.5,1.5c0.4,0.4,0.9,0.6,1.5,0.6c0.5,0,1.1-0.2,1.7-0.5
		c0.6-0.3,1.1-0.7,1.7-1.1c0.6-0.5,1.1-1,1.5-1.5c0.4-0.5,0.8-1,1.1-1.4C323.8,36.9,324,36.5,324,36.4z"/>
	<path class="st0" d="M335,45.1c-0.3,0.4-0.6,0.7-0.9,0.8c-0.3,0.1-0.6,0.2-0.9,0.1c-0.3-0.1-0.4-0.3-0.5-0.6
		c-0.1-0.3,0-0.7,0.2-1.2c0.1-0.2,0.4-0.8,0.8-1.6s0.9-1.8,1.5-3c0.6-1.2,1.2-2.4,1.8-3.8s1.3-2.6,1.9-3.8c0.6-1.2,1.2-2.3,1.7-3.3
		c0.5-1,0.9-1.6,1.1-2.1c-0.4-0.4-0.7-0.7-0.9-0.8c-0.2-0.2-0.3-0.6-0.4-1.1c-0.1-0.5,0-1.2,0.4-2c0.3-0.8,0.7-1.6,1.2-2.4
		c0.5-0.8,1.1-1.4,1.7-2c0.6-0.5,1.2-0.8,1.8-0.8c1.1,0,1.9,0.4,2.3,1.1c0.4,0.7,0.7,1.4,0.8,2.2c0.1,0.5,0,1.2-0.1,1.9
		c-0.2,0.8-0.4,1.5-0.9,2.1c0.1,0.1,0.3,0.2,0.5,0.3c0.2,0.1,0.5,0.1,0.9,0.1c0.6,0,1.1,0,1.3-0.1c0.3-0.1,0.7-0.1,1.2-0.1
		c0.7,0,1.2,0.2,1.6,0.5c0.4,0.3,0.8,0.7,1.1,1.2c0.3,0.5,0.5,1,0.6,1.6c0.1,0.6,0.2,1.1,0.3,1.6c0.1,1-0.1,2-0.8,3
		c-0.6,1.1-1.4,2.2-2.3,3.5c-0.5,0.8-1.1,1.7-1.6,2.6c-0.5,1-0.8,1.9-0.7,2.6c0.1,0.5,0.2,0.9,0.4,1.2c0.2,0.3,0.7,0.5,1.6,0.5
		c0.7,0,1.4-0.2,2.2-0.7c0.8-0.5,1.6-1.1,2.5-1.9c0.8-0.8,1.7-1.6,2.5-2.5c0.8-0.9,1.6-1.8,2.3-2.7s1.3-1.7,1.8-2.4
		c0.5-0.7,0.8-1.2,1.1-1.5c0.2-0.3,0.4-0.5,0.8-0.6c0.3-0.1,0.6-0.1,0.8,0s0.4,0.4,0.4,0.7s-0.1,0.8-0.4,1.4c-0.2,0.4-0.6,1-1.2,1.9
		c-0.6,0.9-1.3,1.8-2.1,2.9c-0.8,1.1-1.7,2.1-2.7,3.3c-1,1.1-2,2.1-3.1,3c-1.1,0.9-2.1,1.7-3.2,2.3c-1.1,0.6-2.1,0.9-3.1,0.9
		c-1,0-1.9-0.2-2.5-0.6c-0.7-0.4-1.2-0.9-1.6-1.4s-0.7-1.2-0.9-1.9c-0.2-0.7-0.2-1.3-0.2-1.9c0-0.5,0.2-1,0.4-1.5
		c0.2-0.5,0.5-1.1,0.8-1.6c0.3-0.6,0.6-1.1,0.9-1.7c0.3-0.6,0.6-1.1,0.9-1.7c0.7-1.1,1.2-2.1,1.6-2.9c0.4-0.8,0.6-1.5,0.6-2
		c0-0.4-0.1-0.7-0.2-0.9c-0.2-0.3-0.4-0.4-0.8-0.4c-0.2,0-0.4,0-0.5,0c-0.1,0-0.2,0-0.3,0c-0.1,0-0.2,0-0.4,0c-0.2,0-0.4,0-0.8,0
		c-0.5,0-0.9-0.1-1.3-0.2c-0.4-0.2-0.7-0.3-1-0.4c-0.2,0.3-0.5,0.9-1.1,1.8c-0.5,0.9-1.2,2-1.9,3.2c-0.7,1.2-1.5,2.5-2.3,3.8
		c-0.8,1.3-1.6,2.6-2.3,3.7c-0.7,1.2-1.3,2.1-1.8,2.9C335.4,44.5,335.1,45,335,45.1z"/>
</g>
</svg>
